<svg width="69" height="63" viewBox="0 0 69 63" fill="none" xmlns="http://www.w3.org/2000/svg">
<path d="M19.4998 42.0001C20.3293 42.0001 20.9998 41.3281 20.9998 40.5001V25.5002C20.9998 23.0192 18.9808 21.0002 16.4998 21.0002H10.4999C8.01887 21.0002 5.99988 23.0192 5.99988 25.5002V40.5001C5.99988 41.3281 6.67037 42.0001 7.49987 42.0001C8.32936 42.0001 8.99986 41.3281 8.99986 40.5001V36.0002H17.9998V40.5001C17.9998 41.3281 18.6703 42.0001 19.4998 42.0001ZM8.99986 33.0002V25.5002C8.99986 24.6737 9.67186 24.0002 10.4999 24.0002H16.4998C17.3278 24.0002 17.9998 24.6737 17.9998 25.5002V33.0002H8.99986Z" fill="#507CDD"/>
<path d="M31.4997 40.5001V36.0002H35.9997C40.1352 36.0002 43.4997 32.6357 43.4997 28.5002C43.4997 24.3647 40.1352 21.0002 35.9997 21.0002H29.9997C29.1703 21.0002 28.4998 21.6722 28.4998 22.5002V34.5002V40.5001C28.4998 41.3281 29.1703 42.0001 29.9997 42.0001C30.8292 42.0001 31.4997 41.3281 31.4997 40.5001ZM31.4997 24.0002H35.9997C38.4807 24.0002 40.4997 26.0192 40.4997 28.5002C40.4997 30.9812 38.4807 33.0002 35.9997 33.0002H31.4997V24.0002Z" fill="#507CDD"/>
<path d="M49.4998 39.0001C48.6703 39.0001 47.9998 39.6721 47.9998 40.5001C47.9998 41.3281 48.6703 42.0001 49.4998 42.0001H61.4997C62.3292 42.0001 62.9997 41.3281 62.9997 40.5001C62.9997 39.6721 62.3292 39.0001 61.4997 39.0001H56.9998V24.0002H61.4997C62.3292 24.0002 62.9997 23.3282 62.9997 22.5002C62.9997 21.6722 62.3292 21.0002 61.4997 21.0002H49.4998C48.6703 21.0002 47.9998 21.6722 47.9998 22.5002C47.9998 23.3282 48.6703 24.0002 49.4998 24.0002H53.9998V39.0001H49.4998Z" fill="#507CDD"/>
<path d="M64.4996 6.00034H41.1208L35.5603 0.439872C34.9738 -0.146624 34.0258 -0.146624 33.4393 0.439872L27.8788 6.00034H4.49997C2.01899 6.00034 0 8.01933 0 10.5003V15.0003C0 15.8283 0.670496 16.5003 1.49999 16.5003C2.32949 16.5003 2.99998 15.8283 2.99998 15.0003V10.5003C2.99998 9.67382 3.67198 9.00032 4.49997 9.00032H28.4998C28.8988 9.00032 29.2798 8.84282 29.5603 8.56083L34.4998 3.62135L39.4393 8.56083C39.7198 8.84282 40.1008 9.00032 40.4998 9.00032H64.4996C65.3276 9.00032 65.9996 9.67382 65.9996 10.5003V15.0003C65.9996 15.8283 66.6701 16.5003 67.4996 16.5003C68.3291 16.5003 68.9996 15.8283 68.9996 15.0003V10.5003C68.9996 8.01933 66.9806 6.00034 64.4996 6.00034Z" fill="#507CDD"/>
<path d="M67.4996 46.5C66.6701 46.5 65.9996 47.172 65.9996 48V52.5C65.9996 53.3265 65.3276 54 64.4996 54H40.4998C40.1008 54 39.7198 54.1575 39.4393 54.4395L34.4998 59.3789L29.5603 54.4395C29.2798 54.1575 28.8988 54 28.4998 54H4.49997C3.67198 54 2.99998 53.3265 2.99998 52.5V48C2.99998 47.172 2.32949 46.5 1.49999 46.5C0.670496 46.5 0 47.172 0 48V52.5C0 54.981 2.01899 56.9999 4.49997 56.9999H27.8788L33.4393 62.5604C33.7318 62.8529 34.1158 62.9999 34.4998 62.9999C34.8838 62.9999 35.2678 62.8529 35.5603 62.5604L41.1208 56.9999H64.4996C66.9806 56.9999 68.9996 54.981 68.9996 52.5V48C68.9996 47.172 68.3291 46.5 67.4996 46.5Z" fill="#507CDD"/>
</svg>
