<svg width="69" height="69" viewBox="0 0 69 69" fill="none" xmlns="http://www.w3.org/2000/svg">
<path d="M55.4092 20.9092C51.3674 20.9092 48.091 17.6327 48.091 13.591C48.091 6.0848 42.006 0 34.5 0C26.994 0 20.9092 6.0848 20.9092 13.5908C20.9092 17.6326 17.6327 20.909 13.591 20.909C6.0848 20.9092 0 26.994 0 34.5C0 42.006 6.0848 48.0908 13.5908 48.0908C17.6326 48.0908 20.909 51.3673 20.909 55.409C20.9092 62.9152 26.994 69 34.5 69C42.006 69 48.0908 62.9152 48.0908 55.4092C48.0908 51.3674 51.3673 48.091 55.409 48.091C62.9152 48.0908 69 42.006 69 34.5C69 26.994 62.9152 20.9092 55.4092 20.9092Z" fill="url(#paint0_linear)"/>
<g opacity="0.1">
<path opacity="0.1" d="M34.5 56.5163C41.7478 56.5163 47.6233 50.6408 47.6233 43.393C47.6233 36.1452 41.7478 30.2697 34.5 30.2697C27.2522 30.2697 21.3767 36.1452 21.3767 43.393C21.3767 50.6408 27.2522 56.5163 34.5 56.5163Z" fill="#507CDD"/>
<path opacity="0.1" d="M60.8719 37.9574H60.389V36.7285C60.389 34.7066 58.7499 33.0675 56.728 33.0675H56.3746C56.5964 31.7996 56.7095 30.5081 56.7095 29.2134C56.7095 23.9235 54.8356 18.8403 51.4192 14.8264C51.1888 14.5558 50.78 14.5288 50.5161 14.767L50.073 15.167C50.047 15.1184 50.0168 15.0715 49.9778 15.0292C46.0098 10.7012 40.3682 8.21912 34.5 8.21912C28.6152 8.21912 22.963 10.7131 18.9925 15.0613C18.9644 15.0922 18.9406 15.1256 18.9193 15.1597L18.4839 14.7667C18.2202 14.5286 17.8112 14.5555 17.5809 14.8261C14.1645 18.84 12.2905 23.9232 12.2905 29.2132C12.2905 30.5077 12.4037 31.7993 12.6254 33.0672H12.272C10.2501 33.0672 8.61099 34.7064 8.61099 36.7282V37.9572H8.12812C7.75603 37.9572 7.45429 38.2589 7.45429 38.631V42.7188C7.45429 43.0909 7.75603 43.3927 8.12812 43.3927H8.61099V51.5986C8.61099 53.6206 10.2501 55.2596 12.272 55.2596H16.832C17.5763 55.2596 18.1796 54.6562 18.1796 53.9119V34.4151C18.1796 33.6708 17.5763 33.0675 16.832 33.0675H16.4739C16.206 31.8075 16.0686 30.5129 16.0686 29.2134C16.0686 24.8476 17.6066 20.6515 20.4119 17.3294C20.6314 17.0694 20.6069 16.6831 20.3543 16.4552L19.9014 16.0464C19.9314 16.0231 19.9611 15.9991 19.9876 15.9702C23.7035 11.9008 28.9931 9.56677 34.5 9.56677C39.9916 9.56677 45.271 11.8896 48.9845 15.9397C49.0209 15.9793 49.0616 16.0121 49.1043 16.041L48.6455 16.455C48.393 16.6829 48.3685 17.0693 48.588 17.3293C51.3933 20.6514 52.9312 24.8474 52.9312 29.2133C52.9312 30.5127 52.7939 31.8074 52.526 33.0673H52.1679C51.4236 33.0673 50.8203 33.6707 50.8203 34.415V53.9122C50.8203 54.6565 51.4236 55.2599 52.1679 55.2599H53.3698V56.97C53.3698 59.4925 51.3177 61.5444 48.7954 61.5444H42.8105C42.7675 61.5444 42.7257 61.5494 42.6849 61.5571C42.4451 60.9951 41.8877 60.601 41.2381 60.601H36.0935C35.2252 60.601 34.5212 61.3049 34.5212 62.1733C34.5212 63.0418 35.225 63.7457 36.0935 63.7457H41.2383C41.8563 63.7457 42.3895 63.3883 42.6465 62.8697C42.6993 62.883 42.7536 62.8922 42.8106 62.8922H48.7955C52.0609 62.8922 54.7175 60.2355 54.7175 56.9702V55.26H56.728C58.7499 55.26 60.389 53.6208 60.389 51.599V43.3931H60.8719C61.244 43.3931 61.5457 43.0913 61.5457 42.7193V38.6314C61.5457 38.2592 61.244 37.9574 60.8719 37.9574Z" fill="#507CDD"/>
</g>
<path d="M16.832 51.6211H12.272C10.2501 51.6211 8.61098 49.9819 8.61098 47.9601V33.0898C8.61098 31.0679 10.2501 29.4287 12.272 29.4287H16.832C17.5763 29.4287 18.1796 30.0321 18.1796 30.7764V50.2736C18.1796 51.0178 17.5763 51.6211 16.832 51.6211Z" fill="white"/>
<path d="M16.832 29.4287H14.9563V51.6212H16.832C17.5763 51.6212 18.1796 51.0179 18.1796 50.2736V30.7764C18.1796 30.0321 17.5763 29.4287 16.832 29.4287Z" fill="#6583FE"/>
<path d="M14.9563 48.6883C15.8464 48.6883 16.5679 47.9667 16.5679 47.0766C16.5679 46.1865 15.8464 45.465 14.9563 45.465C14.0662 45.465 13.3446 46.1865 13.3446 47.0766C13.3446 47.9667 14.0662 48.6883 14.9563 48.6883Z" fill="white"/>
<path d="M14.9563 48.6883C15.8464 48.6883 16.5679 47.9667 16.5679 47.0766C16.5679 46.1865 15.8464 45.465 14.9563 45.465C14.0662 45.465 13.3446 46.1865 13.3446 47.0766C13.3446 47.9667 14.0662 48.6883 14.9563 48.6883Z" stroke="#507CDD" stroke-width="10" stroke-miterlimit="10"/>
<path d="M9.88008 39.7542H8.12812C7.75603 39.7542 7.45429 39.4525 7.45429 39.0804V34.9926C7.45429 34.6205 7.75603 34.3187 8.12812 34.3187H9.88008C10.2522 34.3187 10.5539 34.6205 10.5539 34.9926V39.0804C10.5539 39.4526 10.2523 39.7542 9.88008 39.7542Z" fill="white"/>
<path d="M52.168 51.6211H56.7279C58.7498 51.6211 60.389 49.9819 60.389 47.9601V33.0898C60.389 31.0679 58.7498 29.4287 56.7279 29.4287H52.168C51.4237 29.4287 50.8204 30.0321 50.8204 30.7764V50.2736C50.8204 51.0178 51.4237 51.6211 52.168 51.6211Z" fill="white"/>
<path d="M52.168 29.4287H54.0437V51.6212H52.168C51.4237 51.6212 50.8204 51.0179 50.8204 50.2736V30.7764C50.8204 30.0321 51.4237 29.4287 52.168 29.4287Z" fill="#6583FE"/>
<path d="M54.0437 48.6883C54.9338 48.6883 55.6554 47.9667 55.6554 47.0766C55.6554 46.1865 54.9338 45.465 54.0437 45.465C53.1536 45.465 52.432 46.1865 52.432 47.0766C52.432 47.9667 53.1536 48.6883 54.0437 48.6883Z" fill="white"/>
<path d="M54.0437 48.6883C54.9338 48.6883 55.6554 47.9667 55.6554 47.0766C55.6554 46.1865 54.9338 45.465 54.0437 45.465C53.1536 45.465 52.432 46.1865 52.432 47.0766C52.432 47.9667 53.1536 48.6883 54.0437 48.6883Z" stroke="#507CDD" stroke-width="10" stroke-miterlimit="10"/>
<path d="M59.1199 39.7542H60.8719C61.244 39.7542 61.5457 39.4525 61.5457 39.0804V34.9926C61.5457 34.6205 61.244 34.3187 60.8719 34.3187H59.1199C58.7479 34.3187 58.4461 34.6205 58.4461 34.9926V39.0804C58.4461 39.4526 58.7477 39.7542 59.1199 39.7542Z" fill="white"/>
<path d="M52.5261 29.4288H56.3746C56.5964 28.1609 56.7095 26.8693 56.7095 25.5747C56.7095 20.2848 54.8355 15.2015 51.4191 11.1877C51.1888 10.9171 50.7799 10.8901 50.516 11.1283L48.6455 12.8165C48.3929 13.0445 48.3684 13.4307 48.5879 13.6907C51.3932 17.0128 52.9312 21.2089 52.9312 25.5747C52.9313 26.8741 52.7938 28.1688 52.5261 29.4288Z" fill="white"/>
<path d="M16.4739 29.4288C16.2061 28.1688 16.0686 26.8741 16.0686 25.5747C16.0686 21.2089 17.6066 17.0127 20.4119 13.6907C20.6314 13.4307 20.6069 13.0444 20.3543 12.8165L18.4838 11.1283C18.2199 10.8901 17.811 10.9171 17.5807 11.1877C14.1644 15.2015 12.2904 20.2848 12.2904 25.5747C12.2904 26.8693 12.4036 28.1609 12.6253 29.4288H16.4739Z" fill="white"/>
<path d="M36.0936 60.1071H41.2383C42.1066 60.1071 42.8106 59.4033 42.8106 58.5348C42.8106 57.6665 42.1067 56.9625 41.2383 56.9625H36.0936C35.2253 56.9625 34.5213 57.6664 34.5213 58.5348C34.5215 59.4031 35.2253 60.1071 36.0936 60.1071Z" fill="white"/>
<path d="M61.0628 33.6602V33.09C61.0628 30.8448 59.3471 28.9931 57.158 28.7764C57.3068 27.7157 57.3833 26.6423 57.3833 25.5748C57.3833 20.1455 55.4474 14.8809 51.9323 10.751C51.7019 10.4802 51.3793 10.3182 51.0244 10.2949C50.669 10.2708 50.3286 10.3898 50.0648 10.6281L49.6299 11.0206C45.6835 6.92173 40.1988 4.58044 34.5 4.58044C28.7993 4.58044 23.3167 6.92078 19.37 11.0202L18.9354 10.6279C18.6714 10.3897 18.3303 10.2712 17.9757 10.2948C17.6207 10.3181 17.2982 10.4801 17.0677 10.7508C13.5526 14.8809 11.6167 20.1453 11.6167 25.5746C11.6167 26.642 11.6932 27.7155 11.842 28.7763C9.65286 28.993 7.93716 30.8447 7.93716 33.0898V33.66C7.28449 33.7533 6.78046 34.3145 6.78046 34.9926V39.0804C6.78046 39.7585 7.28435 40.3198 7.93716 40.413V47.9603C7.93716 50.3505 9.88182 52.2952 12.272 52.2952H16.832C17.9466 52.2952 18.8534 51.3883 18.8534 50.2737V39.3922C18.8534 39.0199 18.5517 38.7183 18.1796 38.7183C17.8075 38.7183 17.5058 39.0199 17.5058 39.3922V50.2737C17.5058 50.6452 17.2035 50.9475 16.832 50.9475H12.272C10.6248 50.9475 9.28481 49.6075 9.28481 47.9603V40.4281H9.88007C10.6232 40.4281 11.2277 39.8235 11.2277 39.0804V34.9926C11.2277 34.2495 10.6232 33.6449 9.88007 33.6449H9.28481V33.0898C9.28481 31.4426 10.6249 30.1025 12.272 30.1025H12.6239C12.6244 30.1025 12.6248 30.1026 12.6254 30.1026H16.4739C16.4747 30.1026 16.4755 30.1025 16.4762 30.1025H16.832C17.2035 30.1025 17.5058 30.4048 17.5058 30.7763V35.2681C17.5058 35.6403 17.8075 35.9419 18.1796 35.9419C18.5517 35.9419 18.8534 35.6403 18.8534 35.2681V30.7763C18.8534 29.7287 18.0523 28.8651 17.0306 28.7649C16.8398 27.713 16.7425 26.6424 16.7425 25.5748C16.7425 21.3869 18.2284 17.3208 20.9267 14.1256C21.3837 13.5844 21.3306 12.7898 20.8058 12.3163L20.3712 11.924C24.0627 8.10699 29.1797 5.9281 34.5 5.9281C39.8187 5.9281 44.9383 8.10699 48.6291 11.9237L48.1942 12.3163C47.6694 12.7898 47.6163 13.5844 48.0732 14.1255C50.7715 17.3208 52.2575 21.3869 52.2575 25.5748C52.2575 26.6424 52.1602 27.713 51.9694 28.7649C50.9476 28.8651 50.1466 29.7287 50.1466 30.7763V35.2681C50.1466 35.6403 50.4483 35.9419 50.8204 35.9419C51.1925 35.9419 51.4942 35.6403 51.4942 35.2681V30.7763C51.4942 30.4048 51.7965 30.1025 52.168 30.1025H52.5238C52.5246 30.1025 52.5254 30.1026 52.5261 30.1026H56.3746C56.3752 30.1026 56.3756 30.1025 56.3761 30.1025H56.728C58.3752 30.1025 59.7153 31.4426 59.7153 33.0898V33.6449H59.1201C58.377 33.6449 57.7724 34.2495 57.7724 34.9926V39.0804C57.7724 39.8235 58.377 40.4281 59.1201 40.4281H59.7153V47.9603C59.7153 49.6075 58.3752 50.9475 56.728 50.9475H54.0451C54.0447 50.9475 54.0443 50.9474 54.0437 50.9474C54.0432 50.9474 54.0429 50.9475 54.0424 50.9475H52.1679C51.7964 50.9475 51.4941 50.6452 51.4941 50.2737V39.3922C51.4941 39.0199 51.1923 38.7183 50.8203 38.7183C50.4482 38.7183 50.1464 39.0199 50.1464 39.3922V50.2737C50.1464 51.3883 51.0533 52.2952 52.1679 52.2952H53.3698V53.3314C53.3698 55.8538 51.3177 57.9057 48.7954 57.9057H43.3929C43.12 56.9726 42.2582 56.2885 41.2381 56.2885H36.0935C34.855 56.2885 33.8473 57.2962 33.8473 58.5347C33.8473 59.7732 34.855 60.7808 36.0935 60.7808H41.2383C42.2252 60.7808 43.0637 60.1401 43.3643 59.2534H48.7955C52.0609 59.2534 54.7175 56.5967 54.7175 53.3314V52.2952H56.7278C59.1182 52.2952 61.0628 50.3505 61.0628 47.9603V40.413C61.7155 40.3198 62.2195 39.7586 62.2195 39.0804V34.9926C62.2195 34.3146 61.7155 33.7534 61.0628 33.6602ZM9.88102 39.0804H8.12812V34.9926H9.88007L9.88102 39.0804ZM15.3948 25.5746C15.3948 26.6381 15.4839 27.7045 15.66 28.7548H13.1991C13.0432 27.7023 12.9643 26.6351 12.9643 25.5746C12.9643 20.4797 14.7754 15.5393 18.0653 11.6579L19.8707 13.2874C16.9841 16.7208 15.3948 21.0826 15.3948 25.5746ZM49.1293 13.2875L50.9347 11.6581C54.2246 15.5396 56.0357 20.4798 56.0357 25.5748C56.0357 26.6352 55.9567 27.7023 55.8009 28.755H53.34C53.5161 27.7046 53.6052 26.6383 53.6052 25.5748C53.6052 21.0826 52.016 16.7208 49.1293 13.2875ZM41.2383 59.4333H36.0936C35.5982 59.4333 35.1951 59.0302 35.1951 58.5348C35.1951 58.0394 35.5982 57.6363 36.0936 57.6363H41.2383C41.7337 57.6363 42.1368 58.0394 42.1368 58.5348C42.1368 59.0302 41.7337 59.4333 41.2383 59.4333ZM59.1199 34.9926H60.8719V39.0804H59.1199V34.9926Z" fill="#507CDD"/>
<defs>
<linearGradient id="paint0_linear" x1="58.904" y1="10.096" x2="-0.539062" y2="69.5391" gradientUnits="userSpaceOnUse">
<stop stop-color="#D2DEFF" stop-opacity="0"/>
<stop offset="1" stop-color="#B7C5FF"/>
</linearGradient>
</defs>
</svg>
