<svg width="77" height="77" viewBox="0 0 77 77" fill="none" xmlns="http://www.w3.org/2000/svg">
<path d="M76.0414 43.5257C74.2629 38.3207 70.3058 34.4783 65.5363 32.6672C63.0654 31.729 61.4237 29.3803 61.3875 26.7375C61.3867 26.6797 61.3857 26.6218 61.3843 26.5639C61.1577 16.8514 53.0394 9.069 43.3259 9.23579C37.5969 9.33414 32.5296 12.1466 29.3538 16.4425C26.619 20.142 22.3622 22.4529 17.7617 22.4505C17.6267 22.4505 17.4915 22.4518 17.3557 22.4548C8.04392 22.6583 0.125853 30.6478 0.00163067 39.9607C-0.130563 49.8763 7.86751 57.9556 17.7525 57.9556C25.4145 57.9556 31.9417 53.1014 34.4288 46.3008C35.0795 44.5213 37.0083 43.5676 38.8326 44.0792C38.8554 44.0855 38.8782 44.092 38.9011 44.0983C40.5703 44.5591 41.677 46.1496 41.5404 47.8759C41.3574 50.1894 41.6278 52.5764 42.4124 54.9136C45.4986 64.1078 55.5246 69.1534 64.7443 66.1448C74.1755 63.0671 79.2388 52.8828 76.0414 43.5257Z" fill="url(#paint0_linear)"/>
<path opacity="0.1" d="M69.265 54.5944L66.8172 53.8973C66.5775 52.9201 66.1916 51.9998 65.6837 51.1623L66.9222 48.9379C67.0272 48.7487 66.9942 48.5121 66.8413 48.3592L65.1683 46.6862C65.0152 46.5331 64.7787 46.5004 64.5896 46.6053L62.3651 47.8438C61.5275 47.3359 60.6073 46.95 59.63 46.7105L58.933 44.2627C58.8736 44.054 58.6832 43.9103 58.4662 43.9103H57.2833V6.76595C57.2833 5.52162 56.2735 4.5116 55.029 4.5116H21.9661C20.7217 4.5116 19.7117 5.52147 19.7117 6.76595V11.8917H13.4093C12.1654 11.8917 11.1546 12.9025 11.1546 14.1464V61.3699C11.1546 62.6153 12.1654 63.6246 13.4093 63.6246H46.4719C47.004 63.6246 47.4925 63.4389 47.8784 63.1301L47.6445 63.55C47.5395 63.739 47.5725 63.9757 47.7254 64.1287L49.3984 65.8016C49.5515 65.9547 49.788 65.9875 49.9771 65.8825L52.2016 64.6441C53.039 65.152 53.9594 65.5379 54.9367 65.7776L55.6337 68.2253C55.6931 68.4341 55.8835 68.5777 56.1005 68.5777H58.4662C58.6832 68.5777 58.8736 68.4341 58.933 68.2253L59.63 65.7776C60.6073 65.5379 61.5275 65.1521 62.3651 64.6441L64.5896 65.8825C64.7788 65.9875 65.0152 65.9546 65.1683 65.8016L66.8413 64.1287C66.9944 63.9756 67.0272 63.739 66.9222 63.55L65.6837 61.3254C66.1916 60.488 66.5775 59.5677 66.8172 58.5904L69.265 57.8934C69.4737 57.8339 69.6173 57.6436 69.6173 57.4265V55.061C69.6173 54.8442 69.4737 54.6538 69.265 54.5944ZM48.7091 61.6378C48.7195 61.5498 48.7264 61.4608 48.7264 61.3699V61.0561C48.7774 61.1466 48.8291 61.2367 48.883 61.3254L48.7091 61.6378ZM57.2833 60.1233C55.141 60.1233 53.4042 58.3865 53.4039 56.2443H55.029C56.2733 56.2443 57.2833 55.2344 57.2833 53.99V52.3644C59.4258 52.3644 61.1628 54.1014 61.1628 56.2439C61.1628 58.3863 59.4258 60.1233 57.2833 60.1233Z" fill="#507CDD"/>
<path d="M48.7266 17.3048V64.5284C48.7266 65.7738 47.7158 66.783 46.4719 66.783H13.4093C12.1654 66.783 11.1546 65.7738 11.1546 64.5284V17.3048C11.1546 16.0609 12.1654 15.0502 13.4093 15.0502H46.4719C47.7158 15.0502 48.7266 16.0609 48.7266 17.3048Z" fill="white"/>
<path d="M45.0489 45.0621V26.4263C45.0489 26.1773 44.8471 25.9755 44.598 25.9755H15.2831C15.0341 25.9755 14.8323 26.1773 14.8323 26.4263V45.0618C14.8323 45.3109 15.0341 45.5127 15.2831 45.5127H44.598C44.8471 45.513 45.0489 45.311 45.0489 45.0621Z" fill="#6583FE"/>
<path d="M48.7268 22.2896V17.3044C48.7268 16.0593 47.7176 15.05 46.4725 15.05H13.4094C12.1643 15.05 11.1551 16.0593 11.1551 17.3044V22.2896H48.7268Z" fill="white"/>
<path d="M57.2833 9.92452V57.1485C57.2833 58.3929 56.2735 59.4029 55.029 59.4029H21.966C20.7217 59.4029 19.7117 58.393 19.7117 57.1485V9.92452C19.7117 8.68019 20.7216 7.67017 21.966 7.67017H55.0291C56.2735 7.67017 57.2833 8.68019 57.2833 9.92452Z" fill="#6583FE"/>
<path d="M19.7117 53.5853V57.1487C19.7117 58.393 20.7216 59.403 21.966 59.403H55.0291C56.2735 59.403 57.2835 58.3932 57.2835 57.1487V53.5853H19.7117Z" fill="white"/>
<path d="M27.9147 7.67017H21.966C20.7217 7.67017 19.7117 8.68004 19.7117 9.92452V57.1485C19.7117 58.3929 20.7216 59.4029 21.966 59.4029H27.9147V7.67017Z" fill="white"/>
<path d="M57.2833 14.9097V9.92452C57.2833 8.67944 56.2741 7.67017 55.029 7.67017H21.966C20.721 7.67017 19.7117 8.67944 19.7117 9.92452V14.9097H57.2833Z" fill="white"/>
<path d="M19.7117 53.5852H57.2833" stroke="#507CDD" stroke-width="10" stroke-miterlimit="10"/>
<path d="M69.2649 57.7528L66.8171 57.0558C66.5774 56.0785 66.1917 55.1583 65.6837 54.3208L66.9221 52.0962C67.0271 51.907 66.9942 51.6706 66.8412 51.5175L65.1683 49.8445C65.0152 49.6914 64.7786 49.6587 64.5896 49.7636L62.365 51.0021C61.5276 50.4942 60.6072 50.1083 59.63 49.8686L58.9329 47.4208C58.8735 47.2121 58.6831 47.0685 58.4661 47.0685H56.1005C55.8834 47.0685 55.6932 47.2121 55.6336 47.4208L54.9366 49.8686C53.9593 50.1083 53.0391 50.4941 52.2016 51.0021L49.977 49.7636C49.7878 49.6587 49.5514 49.6916 49.3983 49.8445L47.7254 51.5175C47.5723 51.6706 47.5393 51.9071 47.6444 52.0962L48.8829 54.3208C48.375 55.1581 47.9891 56.0785 47.7494 57.0558L45.3017 57.7528C45.0929 57.8122 44.9493 58.0026 44.9493 58.2196V60.5853C44.9493 60.8023 45.0929 60.9927 45.3017 61.0521L47.7494 61.7492C47.9891 62.7264 48.3749 63.6466 48.8829 64.4842L47.6444 66.7087C47.5395 66.8979 47.5724 67.1344 47.7254 67.2874L49.3983 68.9604C49.5514 69.1135 49.788 69.1464 49.977 69.0413L52.2016 67.8028C53.039 68.3107 53.9593 68.6966 54.9366 68.9363L55.6336 71.3841C55.6931 71.5928 55.8834 71.7365 56.1005 71.7365H58.4661C58.6831 71.7365 58.8734 71.5928 58.9329 71.3841L59.63 68.9363C60.6072 68.6966 61.5275 68.3109 62.365 67.8028L64.5896 69.0413C64.7788 69.1463 65.0152 69.1133 65.1683 68.9604L66.8412 67.2874C66.9943 67.1344 67.0272 66.8978 66.9221 66.7087L65.6837 64.4842C66.1915 63.6468 66.5774 62.7264 66.8171 61.7492L69.2649 61.0521C69.4736 60.9927 69.6173 60.8023 69.6173 60.5853V58.2196C69.6173 58.0026 69.4736 57.8122 69.2649 57.7528ZM57.2833 63.2818C55.1408 63.2818 53.4038 61.5448 53.4038 59.4023C53.4038 57.2599 55.1408 55.5228 57.2833 55.5228C59.4257 55.5228 61.1628 57.2599 61.1628 59.4023C61.1628 61.5448 59.4257 63.2818 57.2833 63.2818Z" fill="white"/>
<path d="M61.9332 17.4578H68.0798C68.5054 17.4578 68.8503 17.1128 68.8503 16.6873C68.8503 16.2619 68.5054 15.9169 68.0798 15.9169H61.9332C61.5076 15.9169 61.1628 16.2619 61.1628 16.6873C61.1628 17.1128 61.5078 17.4578 61.9332 17.4578Z" fill="#507CDD"/>
<path d="M61.9332 20.1652H64.9213C65.347 20.1652 65.6918 19.8202 65.6918 19.3947C65.6918 18.9693 65.347 18.6243 64.9213 18.6243H61.9332C61.5076 18.6243 61.1628 18.9693 61.1628 19.3947C61.1628 19.8202 61.5078 20.1652 61.9332 20.1652Z" fill="#507CDD"/>
<path d="M61.9332 22.8724H64.9213C65.347 22.8724 65.6918 22.5274 65.6918 22.102C65.6918 21.6765 65.347 21.3315 64.9213 21.3315H61.9332C61.5076 21.3315 61.1628 21.6765 61.1628 22.102C61.1628 22.5274 61.5078 22.8724 61.9332 22.8724Z" fill="#507CDD"/>
<path d="M61.9332 28.2871H68.0798C68.5055 28.2871 68.8503 27.9421 68.8503 27.5167C68.8503 27.0912 68.5055 26.7462 68.0798 26.7462H61.9332C61.5076 26.7462 61.1628 27.0912 61.1628 27.5167C61.1628 27.9421 61.5078 28.2871 61.9332 28.2871Z" fill="#507CDD"/>
<path d="M61.9332 30.9946H64.9213C65.347 30.9946 65.6918 30.6496 65.6918 30.2242C65.6918 29.7987 65.347 29.4537 64.9213 29.4537H61.9332C61.5076 29.4537 61.1628 29.7987 61.1628 30.2242C61.1628 30.6495 61.5078 30.9946 61.9332 30.9946Z" fill="#507CDD"/>
<path d="M61.9332 33.7019H64.9213C65.347 33.7019 65.6918 33.3569 65.6918 32.9315C65.6918 32.506 65.347 32.161 64.9213 32.161H61.9332C61.5076 32.161 61.1628 32.506 61.1628 32.9315C61.1628 33.3569 61.5078 33.7019 61.9332 33.7019Z" fill="#507CDD"/>
<path d="M68.08 24.0389H65.0919C64.6663 24.0389 64.3214 24.3839 64.3214 24.8094C64.3214 25.2348 64.6663 25.5798 65.0919 25.5798H68.08C68.5056 25.5798 68.8504 25.2348 68.8504 24.8094C68.8504 24.3839 68.5054 24.0389 68.08 24.0389Z" fill="#507CDD"/>
<path d="M61.9332 39.1166H68.0798C68.5055 39.1166 68.8503 38.7716 68.8503 38.3461C68.8503 37.9207 68.5055 37.5757 68.0798 37.5757H61.9332C61.5076 37.5757 61.1628 37.9207 61.1628 38.3461C61.1628 38.7716 61.5078 39.1166 61.9332 39.1166Z" fill="#507CDD"/>
<path d="M61.9332 41.824H64.9213C65.347 41.824 65.6918 41.479 65.6918 41.0535C65.6918 40.6281 65.347 40.2831 64.9213 40.2831H61.9332C61.5076 40.2831 61.1628 40.6281 61.1628 41.0535C61.1628 41.479 61.5078 41.824 61.9332 41.824Z" fill="#507CDD"/>
<path d="M61.9332 44.5313H64.9213C65.347 44.5313 65.6918 44.1863 65.6918 43.7608C65.6918 43.3354 65.347 42.9904 64.9213 42.9904H61.9332C61.5076 42.9904 61.1628 43.3354 61.1628 43.7608C61.1628 44.1864 61.5078 44.5313 61.9332 44.5313Z" fill="#507CDD"/>
<path d="M68.08 34.8683H65.0919C64.6663 34.8683 64.3214 35.2133 64.3214 35.6387C64.3214 36.0642 64.6663 36.4092 65.0919 36.4092H68.08C68.5056 36.4092 68.8504 36.0642 68.8504 35.6387C68.8504 35.2133 68.5054 34.8683 68.08 34.8683Z" fill="#507CDD"/>
<path d="M36.6992 20.2293C36.56 19.6547 36.0501 19.2534 35.4589 19.2534H34.7232C34.132 19.2534 33.622 19.6547 33.4829 20.2293L31.95 26.5641C31.8524 26.9677 32.1004 27.3741 32.504 27.4718C32.9075 27.5697 33.3142 27.3214 33.4118 26.9178L34.0875 24.1252H36.094L36.7697 26.9178C36.853 27.262 37.1609 27.4932 37.5001 27.4932C37.5586 27.4932 37.6182 27.4862 37.6776 27.4718C38.0812 27.3742 38.3294 26.9677 38.2318 26.5641L36.6992 20.2293ZM34.4519 22.6211L34.9029 20.7575H35.2796L35.7306 22.6211H34.4519Z" fill="white"/>
<path d="M42.9046 19.2534H40.2501C39.8347 19.2534 39.498 19.5901 39.498 20.0055V26.7409C39.498 27.1563 39.8347 27.493 40.2501 27.493C40.6655 27.493 41.0022 27.1563 41.0022 26.7409V24.5418H42.9046C43.6082 24.5418 44.1806 23.9694 44.1806 23.2658V20.5295C44.1804 19.8258 43.6082 19.2534 42.9046 19.2534ZM42.6763 23.0377H41.002V20.7575H42.6763V23.0377Z" fill="white"/>
<path d="M47.6059 26.0332V20.7129C47.8999 20.6108 48.1124 20.3342 48.1124 20.0053C48.1124 19.5899 47.7757 19.2532 47.3603 19.2532H46.3474C45.932 19.2532 45.5953 19.5899 45.5953 20.0053C45.5953 20.3342 45.8076 20.6108 46.1018 20.7129V26.0332C45.8078 26.1354 45.5953 26.4119 45.5953 26.7408C45.5953 27.1562 45.932 27.4929 46.3474 27.4929H47.3603C47.7757 27.4929 48.1124 27.1562 48.1124 26.7408C48.1124 26.4119 47.8999 26.1354 47.6059 26.0332Z" fill="white"/>
<path d="M50.5207 27.5092C50.1054 27.5092 49.7686 27.1724 49.7686 26.7571V26.7353C49.7686 26.3199 50.1054 25.9832 50.5207 25.9832C50.9361 25.9832 51.2728 26.3199 51.2728 26.7353V26.7571C51.2728 27.1724 50.9361 27.5092 50.5207 27.5092Z" fill="white"/>
<path d="M34.7687 33.6338H32.4026C32.0094 33.6338 31.6581 33.9213 31.6208 34.3128C31.5779 34.762 31.93 35.1399 32.3703 35.1399H34.7687C35.1847 35.1399 35.5219 34.8028 35.5219 34.3868C35.5219 33.971 35.1847 33.6338 34.7687 33.6338Z" fill="#507CDD"/>
<path d="M43.8571 33.6338H38.2304C37.8144 33.6338 37.4772 33.971 37.4772 34.3869C37.4772 34.8029 37.8144 35.1401 38.2304 35.1401H43.8894C44.3298 35.1401 44.6818 34.7622 44.639 34.313C44.6017 33.9213 44.2504 33.6338 43.8571 33.6338Z" fill="#507CDD"/>
<path d="M40.1834 36.787H32.4026C32.0094 36.787 31.6581 37.0745 31.6208 37.466C31.5779 37.9152 31.93 38.2931 32.3703 38.2931H40.1834C40.5994 38.2931 40.9366 37.956 40.9366 37.54C40.9366 37.1242 40.5994 36.787 40.1834 36.787Z" fill="#507CDD"/>
<path d="M48.3692 36.787H43.6448C43.2289 36.787 42.8917 37.1242 42.8917 37.5401C42.8917 37.9561 43.2289 38.2933 43.6448 38.2933H48.4016C48.842 38.2933 49.194 37.9152 49.1511 37.4662C49.1138 37.0745 48.7626 36.787 48.3692 36.787Z" fill="#507CDD"/>
<path d="M37.9272 39.9402H32.4026C32.0094 39.9402 31.6581 40.2277 31.6208 40.6192C31.5779 41.0684 31.93 41.4464 32.3703 41.4464H37.9274C38.3434 41.4464 38.6805 41.1092 38.6805 40.6932C38.6804 40.2774 38.3432 39.9402 37.9272 39.9402Z" fill="#507CDD"/>
<path d="M43.8571 39.9402H41.3889C40.9729 39.9402 40.6357 40.2774 40.6357 40.6934C40.6357 41.1093 40.9729 41.4465 41.3889 41.4465H43.8894C44.3298 41.4465 44.6818 41.0686 44.639 40.6194C44.6017 40.2277 44.2504 39.9402 43.8571 39.9402Z" fill="#507CDD"/>
<path d="M48.3694 43.0933H39.1329C38.7169 43.0933 38.3797 43.4304 38.3797 43.8464C38.3797 44.2624 38.7169 44.5996 39.1329 44.5996H48.4017C48.8421 44.5996 49.1941 44.2216 49.1513 43.7724C49.1138 43.3808 48.7627 43.0933 48.3694 43.0933Z" fill="#507CDD"/>
<path d="M35.6712 43.0933H32.4026C32.0094 43.0933 31.6581 43.3808 31.6208 43.7723C31.5779 44.2215 31.93 44.5994 32.3703 44.5994H35.6712C36.0872 44.5994 36.4244 44.2623 36.4244 43.8463C36.4242 43.4304 36.0871 43.0933 35.6712 43.0933Z" fill="#507CDD"/>
<path d="M69.4711 57.0296L67.4332 56.4494C67.2177 55.7067 66.9213 54.9915 66.5483 54.314L67.5795 52.4615C67.8465 51.9811 67.7613 51.3743 67.3729 50.986L65.6999 49.313C65.3116 48.9246 64.7048 48.8396 64.2235 49.1067L62.3716 50.1376C61.694 49.7646 60.9787 49.4682 60.2364 49.2526L59.656 47.2146C59.5053 46.6857 59.016 46.3163 58.466 46.3163H58.0351V9.92437C58.0351 8.26677 56.6866 6.91821 55.0288 6.91821H21.966C20.3084 6.91821 18.9597 8.26677 18.9597 9.92437V14.298H13.4094C11.7518 14.298 10.4033 15.6466 10.4033 17.3042V22.2889V22.2896C10.4033 22.705 10.74 23.0416 11.1552 23.0416H18.9599V57.1479C18.9599 58.8055 20.3084 60.1541 21.9662 60.1541H40.8098C41.2251 60.1541 41.5618 59.8175 41.5618 59.4021C41.5618 58.9868 41.2251 58.6502 40.8098 58.6502H21.966C21.1377 58.6502 20.4636 57.9763 20.4636 57.1479V15.6616H56.5314V46.3163H56.1005C55.5505 46.3163 55.0613 46.6857 54.9105 47.2148L54.3302 49.2526C53.5879 49.4682 52.8727 49.7645 52.195 50.1376L50.3423 49.1062C49.862 48.8396 49.255 48.9246 48.8669 49.313L47.1941 50.9858C46.8055 51.3743 46.7205 51.981 46.9876 52.4619L48.0185 54.3138C47.6455 54.9915 47.3491 55.7067 47.1336 56.4492L45.0957 57.0294C44.5669 57.1801 44.1975 57.6695 44.1975 58.2195V60.585C44.1975 61.1348 44.5669 61.6241 45.096 61.7748L47.1338 62.3551C47.3493 63.0977 47.6457 63.8128 48.0187 64.4904L47.3005 65.7805C47.055 65.9434 46.7709 66.0301 46.4726 66.0301H13.4094C12.5811 66.0301 11.9072 65.3562 11.9072 64.5277V26.432C11.9072 26.0166 11.5704 25.68 11.1552 25.68C10.74 25.68 10.4033 26.0166 10.4033 26.432V64.5279C10.4033 66.1855 11.7518 67.5342 13.4094 67.5342H46.4725C46.6381 67.5342 46.8015 67.5208 46.9619 67.4946C47.0201 67.6126 47.0975 67.7225 47.1939 67.8189L48.8669 69.4918C49.2555 69.8804 49.862 69.9653 50.3431 69.6982L52.195 68.6672C52.8725 69.0401 53.5878 69.3365 54.3302 69.5521L54.9106 71.5901C55.0613 72.119 55.5507 72.4884 56.1006 72.4884H58.4661C59.0161 72.4884 59.5053 72.119 59.6562 71.5899L60.2364 69.5521C60.979 69.3365 61.6941 69.0402 62.3716 68.6672L64.2243 69.6986C64.7045 69.965 65.3113 69.8801 65.6998 69.4918L67.3729 67.8189C67.761 67.4304 67.846 66.8238 67.5791 66.3428L66.5481 64.4909C66.921 63.8134 67.2175 63.098 67.433 62.3555L69.4711 61.7753C69.9999 61.6246 70.3693 61.1352 70.3693 60.5854V58.2199C70.3693 57.6696 69.9999 57.1803 69.4711 57.0296ZM18.9597 21.5377H11.9072V17.3043C11.9072 16.476 12.5811 15.8021 13.4094 15.8021H18.9597V21.5377ZM20.4636 14.1577V9.92437C20.4636 9.09602 21.1375 8.42212 21.966 8.42212H55.0291C55.8575 8.42212 56.5315 9.09602 56.5315 9.92437V14.1576L20.4636 14.1577ZM68.8654 60.3839L66.6113 61.0259C66.3514 61.0999 66.1513 61.3076 66.0869 61.5699C65.8684 62.4605 65.5165 63.3097 65.0408 64.094C64.9006 64.325 64.8953 64.6136 65.0268 64.8496L66.1672 66.8979L64.7791 68.286L62.7308 67.1456C62.4947 67.0143 62.2061 67.0196 61.9751 67.1597C61.1908 67.6354 60.3415 67.9873 59.4509 68.2057C59.1885 68.2702 58.9808 68.4704 58.9068 68.7301L58.2649 70.9843H56.3017L55.6599 68.7303C55.5859 68.4704 55.378 68.2702 55.1157 68.2058C54.2253 67.9875 53.376 67.6356 52.5916 67.1599C52.3604 67.0197 52.0721 67.0146 51.8359 67.1457L49.7876 68.286L48.3996 66.8981L49.54 64.8497C49.6715 64.6138 49.666 64.3252 49.526 64.0942C49.0502 63.3097 48.6983 62.4605 48.4799 61.57C48.4155 61.3077 48.2154 61.1 47.9555 61.026L45.7014 60.384V58.421L47.9555 57.779C48.2154 57.705 48.4155 57.4973 48.4799 57.235C48.6983 56.3445 49.0502 55.4953 49.526 54.7108C49.6662 54.4798 49.6715 54.1912 49.54 53.9553L48.3997 51.907L49.7879 50.519L51.836 51.6593C52.072 51.7907 52.3606 51.7854 52.5917 51.6453C53.3763 51.1694 54.2256 50.8174 55.1159 50.5992C55.3783 50.5346 55.586 50.3345 55.66 50.0748L56.3019 47.8207H58.2651L58.9069 50.0748C58.9809 50.3346 59.1886 50.5348 59.451 50.5992C60.3414 50.8175 61.1906 51.1694 61.9752 51.6453C62.2064 51.7854 62.495 51.7907 62.7309 51.6593L64.7791 50.519L66.1672 51.907L65.0269 53.9553C64.8955 54.1912 64.9009 54.4798 65.0409 54.7108C65.5166 55.4951 65.8685 56.3444 66.087 57.235C66.1514 57.4973 66.3516 57.705 66.6114 57.779L68.8655 58.421V60.3839H68.8654Z" fill="#507CDD"/>
<path d="M57.2833 54.7709C54.7295 54.7709 52.6519 56.8485 52.6519 59.4023C52.6519 61.9561 54.7295 64.0337 57.2833 64.0337C59.8371 64.0337 61.9147 61.9561 61.9147 59.4023C61.9147 56.8485 59.8371 54.7709 57.2833 54.7709ZM56.5313 56.37V57.1481C56.5313 57.9764 55.8574 58.6504 55.0289 58.6504H54.251C54.5292 57.5299 55.4109 56.6482 56.5313 56.37ZM57.2833 62.5298C55.8185 62.5298 54.5891 61.516 54.251 60.1543H55.0289C56.6865 60.1543 58.0352 58.8057 58.0352 57.1481V56.37C59.397 56.7081 60.4108 57.9373 60.4108 59.4023C60.4108 61.1268 59.0078 62.5298 57.2833 62.5298Z" fill="#507CDD"/>
<path d="M16.8783 19.4327C17.2936 19.4327 17.6303 19.0961 17.6303 18.6807V18.6589C17.6303 18.2436 17.2936 17.907 16.8783 17.907C16.4631 17.907 16.1264 18.2436 16.1264 18.6589V18.6807C16.1264 19.0961 16.4631 19.4327 16.8783 19.4327Z" fill="#507CDD"/>
<path d="M25.435 10.527C25.0198 10.527 24.683 10.8636 24.683 11.2789V11.3007C24.683 11.7161 25.0198 12.0527 25.435 12.0527C25.8502 12.0527 26.1869 11.7161 26.1869 11.3007V11.2789C26.1869 10.8636 25.8502 10.527 25.435 10.527Z" fill="#507CDD"/>
<path d="M28.3393 10.527C27.9241 10.527 27.5874 10.8636 27.5874 11.2789V11.3007C27.5874 11.7161 27.9241 12.0527 28.3393 12.0527C28.7545 12.0527 29.0913 11.7161 29.0913 11.3007V11.2789C29.0913 10.8636 28.7545 10.527 28.3393 10.527Z" fill="#507CDD"/>
<path d="M31.2435 10.527C30.8283 10.527 30.4915 10.8636 30.4915 11.2789V11.3007C30.4915 11.7161 30.8283 12.0527 31.2435 12.0527C31.6587 12.0527 31.9954 11.7161 31.9954 11.3007V11.2789C31.9954 10.8636 31.6587 10.527 31.2435 10.527Z" fill="#507CDD"/>
<path d="M24.5653 34.3759C24.5653 33.9605 24.2286 33.6239 23.8132 33.6239C23.3978 33.6239 23.0611 33.9606 23.0611 34.3759V34.3977C23.0611 34.813 23.3978 35.1498 23.8132 35.1498C24.2286 35.1498 24.5653 34.813 24.5653 34.3977V34.3759Z" fill="#507CDD"/>
<path d="M23.8132 43.0834C23.3979 43.0834 23.0611 43.4201 23.0611 43.8355V43.8573C23.0611 44.2727 23.3979 44.6092 23.8132 44.6092C24.2286 44.6092 24.5653 44.2725 24.5653 43.8573V43.8355C24.5652 43.4201 24.2285 43.0834 23.8132 43.0834Z" fill="#507CDD"/>
<defs>
<linearGradient id="paint0_linear" x1="-0.99967" y1="24.2777" x2="82.0567" y2="48.706" gradientUnits="userSpaceOnUse">
<stop stop-color="#D2DEFF" stop-opacity="0"/>
<stop offset="1" stop-color="#B7C5FF"/>
</linearGradient>
</defs>
</svg>
