<svg width="73" height="59" viewBox="0 0 73 59" fill="none" xmlns="http://www.w3.org/2000/svg">
<path d="M67.2221 10.0481C57.8951 2.86839 48.8485 8.71976 38.7579 6.65091C28.5943 4.56707 24.545 -2.37141 12.9689 0.831372C2.7144 3.66841 -3.50771 15.0431 2.12955 24.5661C3.73597 27.2798 6.47262 29.3271 7.591 32.3634C9.39504 37.2616 6.64898 41.0221 7.18465 45.8358C9.41058 65.8363 39.9169 58.0893 51.1419 51.8666C68.746 42.1076 80.6553 20.3888 67.2221 10.0481Z" fill="url(#paint0_linear_1103_2976)"/>
<path d="M47.25 35.3525V40.0625H30.9V36.3425L38.76 28.9925C39.52 28.2725 40.03 27.6625 40.29 27.1625C40.55 26.6425 40.68 26.1225 40.68 25.6025C40.68 24.9225 40.45 24.3925 39.99 24.0125C39.53 23.6325 38.86 23.4425 37.98 23.4425C37.2 23.4425 36.48 23.6225 35.82 23.9825C35.18 24.3225 34.65 24.8225 34.23 25.4825L29.82 23.0225C30.64 21.6625 31.79 20.5925 33.27 19.8125C34.75 19.0325 36.5 18.6425 38.52 18.6425C40.12 18.6425 41.53 18.9025 42.75 19.4225C43.99 19.9425 44.95 20.6925 45.63 21.6725C46.33 22.6325 46.68 23.7525 46.68 25.0325C46.68 26.1725 46.43 27.2525 45.93 28.2725C45.45 29.2725 44.51 30.4125 43.11 31.6925L39.15 35.3525H47.25Z" fill="#0095FF"/>
<defs>
<linearGradient id="paint0_linear_1103_2976" x1="-1.28506" y1="12.8578" x2="66.476" y2="45.3811" gradientUnits="userSpaceOnUse">
<stop stop-color="#D2DEFF" stop-opacity="0"/>
<stop offset="1" stop-color="#B7C5FF"/>
</linearGradient>
</defs>
</svg>
