<svg width="73" height="59" viewBox="0 0 73 59" fill="none" xmlns="http://www.w3.org/2000/svg">
<path d="M67.2221 10.0481C57.8951 2.86839 48.8485 8.71976 38.7579 6.65091C28.5943 4.56707 24.545 -2.37141 12.9689 0.831372C2.7144 3.66841 -3.50771 15.0431 2.12955 24.5661C3.73597 27.2798 6.47262 29.3271 7.591 32.3634C9.39504 37.2616 6.64898 41.0221 7.18465 45.8358C9.41058 65.8363 39.9169 58.0893 51.1419 51.8666C68.746 42.1076 80.6553 20.3888 67.2221 10.0481Z" fill="url(#paint0_linear_1103_2984)"/>
<path d="M41.79 27.4625C43.53 27.8225 44.86 28.5425 45.78 29.6225C46.72 30.6825 47.19 31.9725 47.19 33.4925C47.19 34.7325 46.85 35.8825 46.17 36.9425C45.51 38.0025 44.49 38.8625 43.11 39.5225C41.75 40.1625 40.06 40.4825 38.04 40.4825C36.56 40.4825 35.09 40.3025 33.63 39.9425C32.19 39.5825 30.94 39.0725 29.88 38.4125L32.04 33.9425C32.86 34.5025 33.78 34.9325 34.8 35.2325C35.84 35.5325 36.86 35.6825 37.86 35.6825C38.88 35.6825 39.69 35.4925 40.29 35.1125C40.89 34.7325 41.19 34.1925 41.19 33.4925C41.19 32.1325 40.12 31.4525 37.98 31.4525H35.49V27.7025L39.24 23.6525H30.96V19.0625H46.14V22.7825L41.79 27.4625Z" fill="#0095FF"/>
<defs>
<linearGradient id="paint0_linear_1103_2984" x1="-1.28506" y1="12.8578" x2="66.476" y2="45.3811" gradientUnits="userSpaceOnUse">
<stop stop-color="#D2DEFF" stop-opacity="0"/>
<stop offset="1" stop-color="#B7C5FF"/>
</linearGradient>
</defs>
</svg>
