<svg width="111" height="94" viewBox="0 0 111 94" fill="none" xmlns="http://www.w3.org/2000/svg">
<path d="M108.62 24.3078C103.781 11.9956 88.876 4.61212 76.2517 9.49822C61.8414 15.0754 66.6193 37.9961 53.5303 42.6309C46.4598 45.1346 36.0076 35.7822 28.8641 34.3482C15.7007 31.7056 3.78413 40.9936 0.849787 53.8558C-2.14386 66.9779 2.65762 84.5043 17.0748 88.0659C34.2485 92.3083 43.1941 76.8702 57.6009 72.4373C72.3852 67.8882 88.8237 78.6319 101.063 65.5601C110.105 55.9028 113.412 36.4997 108.62 24.3078Z" fill="url(#paint0_linear)"/>
<path opacity="0.11" d="M81.0021 57.2495H78.6428C80.7647 53.2239 79.8933 48.5339 76.6062 46.6334C73.9521 45.0981 70.5137 45.8387 68.0133 48.2099V42.5323C68.0133 41.337 67.0443 40.368 65.849 40.368H59.9093L65.9462 34.3311C66.047 34.2303 66.1444 34.1275 66.239 34.0234C67.6941 34.975 69.456 35.4962 71.3457 35.3992C75.6106 35.1806 79.0986 31.7693 79.4018 27.5095C79.7572 22.5188 75.8134 18.3597 70.8985 18.3597C68.354 18.3597 66.0711 19.4761 64.5091 21.2436C61.2445 19.162 56.862 19.5447 54.0107 22.3957L50.8033 25.6032L47.5958 22.3957C46.6117 21.4116 45.4443 20.7236 44.2037 20.3271L44.9846 19.5462C46.5245 18.0065 46.7692 15.5485 45.4637 13.8058C43.8293 11.624 40.7198 11.4608 38.8646 13.316L37.205 14.9756L35.6008 13.3712C34.0611 11.8313 31.6031 11.5861 29.8602 12.8918C27.6784 14.5263 27.5152 17.6358 29.3705 19.491L34.2124 24.333C32.471 27.5339 32.9522 31.6232 35.6599 34.3309L41.6968 40.3678H36.1577C35.1541 40.3678 34.2828 41.0543 34.046 42.0297L29.5555 60.6262C29.2274 61.9928 30.2615 63.3093 31.6694 63.3093H35.6623L34.7007 78.9903C34.6254 80.2274 35.6086 81.273 36.8498 81.273H46.803V91.2287C46.803 92.4241 47.7719 93.393 48.9673 93.393H65.828C67.0363 93.393 68.0131 92.4039 68.0131 91.1854V78.4594H80.9989C82.1942 78.4594 83.1631 77.4904 83.1631 76.2951V59.4149C83.1634 58.2191 82.1957 57.2495 81.0021 57.2495Z" fill="#507CDD"/>
<path opacity="0.11" d="M60.5544 14.5629C60.9771 14.9856 61.6621 14.9856 62.0848 14.5629L66.6244 10.0233C67.7791 8.86864 67.7791 6.99674 66.6244 5.84209C65.4698 4.68744 63.5979 4.68744 62.4432 5.84209L61.3195 6.9658L60.1958 5.84209C59.0412 4.68744 57.1693 4.68744 56.0146 5.84209C54.86 6.99674 54.86 8.86864 56.0146 10.0233L60.5544 14.5629Z" fill="#507CDD"/>
<path d="M82.1856 53.7524C79.8014 57.8793 75.0936 59.6192 71.6926 57.6194C71.6926 57.6194 71.6926 57.6194 71.6924 57.6194V87.3332C71.6924 88.5279 70.7256 89.4975 69.5296 89.4975H52.8615C51.6677 89.4975 50.6987 88.5279 50.6987 87.3332V77.5939H40.6049C39.3485 77.5939 38.3536 76.5357 38.4298 75.2839L39.4031 59.4138H35.3487C33.9408 59.4138 32.9067 58.0972 33.2348 56.7307L37.7253 38.1342C37.9621 37.1588 38.8332 36.4723 39.837 36.4723H69.5281C70.7234 36.4723 71.6924 37.4412 71.6924 38.6366V44.3345C74.206 41.9555 77.6624 41.2127 80.3303 42.7528C83.7302 44.7148 84.56 49.6398 82.1856 53.7524Z" fill="white"/>
<path d="M84.8946 74.5639H68.0131C66.8178 74.5639 65.8488 73.5949 65.8488 72.3996V55.5181C65.8488 54.3227 66.8178 53.3538 68.0131 53.3538H84.8946C86.09 53.3538 87.0589 54.3227 87.0589 55.5181V72.3996C87.0589 73.5949 86.09 74.5639 84.8946 74.5639Z" fill="#6E80F8"/>
<path d="M56.18 44.1252L69.7354 30.5698C73.0189 27.2864 73.0189 21.9628 69.7354 18.6794C66.452 15.3959 61.1285 15.3959 57.845 18.6794L54.6496 21.8747L51.4543 18.6794C48.1708 15.3959 42.8473 15.3959 39.5638 18.6794C36.2804 21.9628 36.2804 27.2864 39.5638 30.5698L53.1193 44.1252C53.9644 44.9704 55.3348 44.9704 56.18 44.1252Z" fill="white"/>
<path d="M65.9808 10.6672L70.5204 6.12754C71.6751 4.97289 71.6751 3.10099 70.5204 1.94634C69.3658 0.79169 67.4939 0.79169 66.3392 1.94634L65.2155 3.07004L64.0918 1.94634C62.9372 0.79169 61.0653 0.79169 59.9106 1.94634C58.756 3.10099 58.756 4.97289 59.9106 6.12754L64.4504 10.6672C64.8731 11.0896 65.5583 11.0896 65.9808 10.6672Z" fill="white"/>
<path d="M41.8681 22.8255L48.9079 15.7857C50.6067 14.087 50.6067 11.3327 48.9079 9.63393C47.2092 7.93517 44.4549 7.93517 42.7561 9.63393L41.1028 11.287L39.4495 9.63393C37.7508 7.93517 34.9965 7.93517 33.2977 9.63393C31.599 11.3327 31.599 14.087 33.2977 15.7857L40.3375 22.8255C40.7602 23.248 41.4455 23.248 41.8681 22.8255Z" fill="#6E80F8"/>
<path d="M83.0356 24.5114C83.7861 19.8816 80.6413 15.52 76.0116 14.7695C71.3818 14.019 67.0202 17.1638 66.2697 21.7935C65.5192 26.4233 68.6639 30.7849 73.2937 31.5354C77.9235 32.2859 82.285 29.1412 83.0356 24.5114Z" fill="#6E80F8"/>
<path d="M79.0425 37.7708H75.7324C75.2121 37.7708 74.7341 37.4224 74.6321 36.912C74.4932 36.2164 75.021 35.6065 75.692 35.6065H79.002C79.5223 35.6065 80.0004 35.9552 80.1024 36.4653C80.2411 37.1609 79.7132 37.7708 79.0425 37.7708Z" fill="#507CDD"/>
<path d="M86.4011 37.7708H83.0911C82.5708 37.7708 82.0927 37.4224 81.9907 36.912C81.8518 36.2164 82.3797 35.6065 83.0506 35.6065H86.3607C86.881 35.6065 87.359 35.9552 87.461 36.4653C87.5997 37.1609 87.0718 37.7708 86.4011 37.7708Z" fill="#507CDD"/>
<path d="M79.0425 90.5796H75.7324C75.2121 90.5796 74.7341 90.231 74.6321 89.7208C74.4932 89.0252 75.021 88.4153 75.692 88.4153H79.002C79.5223 88.4153 80.0004 88.764 80.1024 89.2741C80.2411 89.9697 79.7132 90.5796 79.0425 90.5796Z" fill="#507CDD"/>
<path d="M86.4011 90.5796H83.0911C82.5708 90.5796 82.0927 90.231 81.9907 89.7208C81.8518 89.0252 82.3797 88.4153 83.0506 88.4153H86.3607C86.881 88.4153 87.359 88.764 87.461 89.2741C87.5997 89.9697 87.0718 90.5796 86.4011 90.5796Z" fill="#507CDD"/>
<path d="M27.1963 37.7709H23.8862C23.3659 37.7709 22.8878 37.4224 22.7856 36.9121C22.6467 36.2165 23.1748 35.6066 23.8455 35.6066H27.1556C27.6759 35.6066 28.154 35.955 28.2561 36.4654C28.3951 37.161 27.867 37.7709 27.1963 37.7709Z" fill="#507CDD"/>
<path d="M34.555 37.7708H31.2449C30.7246 37.7708 30.2465 37.4224 30.1443 36.912C30.0054 36.2164 30.5335 35.6065 31.2042 35.6065H34.5143C35.0346 35.6065 35.5129 35.955 35.6148 36.4653C35.754 37.1609 35.2257 37.7708 34.555 37.7708Z" fill="#507CDD"/>
<path d="M39.5329 90.5796H36.2228C35.7025 90.5796 35.2244 90.2312 35.1223 89.7208C34.9833 89.0252 35.5114 88.4153 36.1821 88.4153H39.4922C40.0125 88.4153 40.4908 88.7638 40.5928 89.2741C40.7319 89.9697 40.2036 90.5796 39.5329 90.5796Z" fill="#507CDD"/>
<path d="M46.8915 90.5796H43.5814C43.0611 90.5796 42.583 90.2312 42.4809 89.7208C42.3419 89.0252 42.87 88.4153 43.5407 88.4153H46.8508C47.3711 88.4153 47.8494 88.7638 47.9513 89.2741C48.0905 89.9697 47.5622 90.5796 46.8915 90.5796Z" fill="#507CDD"/>
<path d="M47.1738 70.6772C46.9524 70.6772 46.8245 70.6694 46.8139 70.6688C46.2179 70.6259 45.7692 70.108 45.8121 69.5117C45.8547 68.9165 46.3711 68.4707 46.9665 68.5097C47.2842 68.5309 54.5686 68.9207 56.0938 61.4541C56.2132 60.8688 56.7837 60.4899 57.3705 60.6106C57.9559 60.7301 58.3336 61.3017 58.2139 61.8873C56.5184 70.1898 48.9243 70.6772 47.1738 70.6772Z" fill="#507CDD"/>
<path d="M87.059 60.267C87.6568 60.267 88.1412 59.7826 88.1412 59.1848V55.5181C88.1412 53.7252 86.6876 52.2716 84.8947 52.2716H84.1829C85.6081 48.1298 84.3623 43.7248 81.0434 41.8062C78.6377 40.4154 75.6025 40.5907 72.9911 42.1479V37.9739C72.9911 36.5469 71.8343 35.3901 70.4074 35.3901H66.424L70.316 31.4981C73.0744 32.9551 76.6187 33.1174 80.1421 31.1243C81.3477 30.4425 82.3374 29.4251 83.0016 28.2099C87.0227 20.853 81.7606 13.3883 74.7883 13.3883C72.2466 13.3883 69.934 14.3822 68.2136 15.9991C64.5573 14.1216 60.0763 14.8023 57.1376 17.7412L54.6989 20.1799L52.2602 17.7414C51.5817 17.0627 50.8207 16.5032 49.9898 16.063C52.5374 13.0912 51.3646 8.00595 46.4633 6.98548C45.0133 6.68357 43.5084 7.15192 42.4611 8.19922L41.1048 9.55559L39.7449 8.19576C38.8162 7.26706 37.0019 6.72014 35.717 6.99241C30.6679 8.06222 29.5972 13.4654 32.5049 16.3733L36.7974 20.6658C35.2348 24.2416 36.0091 28.4252 38.7926 31.2089L42.9741 35.3903H40.0592C38.5492 35.3903 37.2469 36.4158 36.8924 37.8834L32.4036 56.4734C32.0507 57.9358 32.7218 59.4792 34.2262 60.2336C34.5883 60.4152 34.993 60.4962 35.3982 60.4962H38.2529L37.351 75.2106C37.296 76.1061 37.6172 76.9944 38.2319 77.648C38.8465 78.3014 39.7136 78.6762 40.6107 78.6762H49.6165V87.117C49.6165 88.9099 51.07 90.3634 52.8629 90.3634H69.528C71.3209 90.3634 72.7745 88.9099 72.7745 87.117V75.6462H86.9958C87.6282 75.6462 88.1409 75.1335 88.1409 74.5011V64.9193C88.1409 64.8077 88.0929 64.7014 88.0122 64.6241C87.0807 63.7329 85.9767 64.377 85.9767 65.2795V72.3998C85.9767 72.9974 85.4921 73.4819 84.8945 73.4819H68.013C67.4154 73.4819 66.9309 72.9974 66.9309 72.3998V55.5183C66.9309 54.9207 67.4154 54.4361 68.013 54.4361H84.8945C85.4921 54.4361 85.9767 54.9207 85.9767 55.5183V59.1855C85.9769 59.7826 86.4615 60.267 87.059 60.267ZM74.6693 15.7405C78.7559 15.7405 82.0805 19.0651 82.0805 23.1517C82.0805 27.2383 78.7559 30.5629 74.6693 30.5629C70.5827 30.5629 67.2581 27.2383 67.2581 23.1517C67.2581 19.0651 70.5827 15.7405 74.6693 15.7405ZM34.0634 10.3992C34.7006 9.76227 35.5373 9.44391 36.374 9.44391C37.2108 9.44391 38.0477 9.76249 38.6846 10.3992L40.3377 12.0525C40.5407 12.2555 40.8158 12.3696 41.103 12.3696C41.3902 12.3696 41.6653 12.2558 41.8683 12.0525L43.5216 10.3992C44.7958 9.12511 46.8689 9.12554 48.1431 10.3992C49.4172 11.6733 49.4172 13.7465 48.1431 15.0209L41.1035 22.0604L34.0637 15.0209C32.7893 13.7463 32.7893 11.6731 34.0634 10.3992ZM64.7668 55.5196V72.3996C64.7668 74.1925 66.2203 75.646 68.0132 75.646H70.6104V87.1168C70.6104 87.7143 70.1258 88.1989 69.5282 88.1989H52.8632C52.2656 88.1989 51.781 87.7143 51.781 87.1168V78.676H57.0357C57.3394 78.676 57.6307 78.5555 57.8454 78.3406L59.4456 76.7398C59.5244 76.6611 59.5655 76.5522 59.5632 76.4407C59.5359 75.1523 58.2988 74.826 57.6603 75.4644L56.7256 76.3998C56.6539 76.4715 56.5567 76.5117 56.4555 76.5117H40.7823C40.5416 76.5117 40.3009 76.4459 40.1092 76.3007C39.804 76.07 39.6458 75.7233 39.6681 75.3556L40.5788 60.4959H43.0528C43.5022 60.4959 43.9101 60.2336 44.0965 59.8248L44.9232 58.0111C44.9695 57.9094 44.9702 57.7927 44.9289 57.6889C44.4525 56.4879 43.1799 56.6177 42.8053 57.4382L42.5003 58.1079C42.4382 58.2442 42.3023 58.3316 42.1525 58.3316H35.5717C35.3573 58.3316 35.1413 58.281 34.9634 58.1613C34.5608 57.8906 34.39 57.4289 34.4961 56.9898L38.9889 38.3825C39.1063 37.8966 39.5411 37.5544 40.0408 37.5544H45.1351L46.8237 39.2432C47.036 39.4555 47.3139 39.5616 47.5922 39.5616C47.8703 39.5616 48.1485 39.4555 48.3608 39.2432C48.7852 38.819 48.7852 38.1308 48.3608 37.7066L40.3144 29.6602C38.3736 27.7194 37.6984 24.8987 38.4713 22.3368L39.5199 23.3854C39.8345 23.7001 40.2291 23.9343 40.6665 24.0168C41.4006 24.1551 42.1185 23.93 42.6282 23.4201L48.3716 17.6767C49.2477 18.0442 50.0355 18.5738 50.7181 19.2564L53.9269 22.4652C54.1392 22.6775 54.4173 22.7835 54.6955 22.7835C54.9734 22.7835 55.2517 22.6775 55.464 22.4654L58.673 19.2564C60.8228 17.1064 64.0396 16.5196 66.7724 17.6936C65.7697 19.2114 65.1836 21.0281 65.1836 22.9794C65.1836 25.8737 66.4709 28.4717 68.5008 30.2361L55.4638 43.2729C55.0402 43.6967 54.3505 43.6965 53.9269 43.2729L52.706 42.052C52.3383 41.6841 51.7546 41.5934 51.3207 41.8804C50.7248 42.2745 50.6653 43.0851 51.1425 43.5621L52.39 44.8096C53.0255 45.4452 53.8607 45.7632 54.6952 45.7632C55.53 45.7632 56.365 45.4454 57.0004 44.8096L64.2551 37.5549H69.7449C70.3424 37.5549 70.827 38.0394 70.827 38.637V44.2785C70.827 44.597 70.9474 44.9126 71.1869 45.1223C71.6302 45.5106 72.2645 45.4781 72.6632 45.1024C74.8922 43.0009 77.8495 42.4278 80.0225 43.6763C82.6372 45.1786 83.4388 48.8947 81.9361 52.2721H68.0312C66.2309 52.2714 64.7668 53.7284 64.7668 55.5196Z" fill="#507CDD"/>
<path d="M63.6854 11.4325C64.1073 11.8543 64.6615 12.0651 65.2156 12.0651C65.7697 12.0651 66.3242 11.8541 66.7458 11.4322L71.2856 6.89263C72.8603 5.31811 72.8603 2.7558 71.2856 1.18106C69.7108 -0.394118 67.1487 -0.393252 65.5738 1.18106L65.2156 1.53946L64.857 1.18106C63.2824 -0.394118 60.7204 -0.393252 59.1452 1.18106C57.5709 2.75558 57.5709 5.31789 59.1454 6.89263L63.6854 11.4325ZM60.6758 2.71121C61.0411 2.34588 61.5211 2.16321 62.0014 2.16321C62.4814 2.16321 62.9615 2.34588 63.3268 2.71121L64.4505 3.83491C64.6535 4.03793 64.9286 4.15198 65.2156 4.15198C65.5026 4.15198 65.7781 4.03793 65.9809 3.83491L67.1042 2.71121C67.8353 1.98011 69.0245 1.98055 69.7552 2.71121C70.4861 3.44209 70.4861 4.63138 69.7552 5.36226L65.2154 9.90208L60.6756 5.36226C59.9451 4.63138 59.9451 3.44209 60.6758 2.71121Z" fill="#507CDD"/>
<path d="M74.669 26.6713C74.3818 26.6713 74.1063 26.5572 73.9035 26.354L71.4323 23.8808C71.0099 23.4582 71.0103 22.7729 71.433 22.3505C71.8557 21.928 72.5407 21.928 72.9633 22.3511L74.6693 24.0583L83.3082 15.4174C83.7309 14.9947 84.4159 14.9949 84.8386 15.4171C85.2613 15.8396 85.2613 16.5248 84.8388 16.9475L75.4343 26.3542C75.2318 26.5572 74.9562 26.6713 74.669 26.6713Z" fill="white"/>
<defs>
<linearGradient id="paint0_linear" x1="46.0164" y1="12.7596" x2="66.1443" y2="90.6743" gradientUnits="userSpaceOnUse">
<stop stop-color="#D2DBFC" stop-opacity="0"/>
<stop offset="1" stop-color="#B8C1FB"/>
</linearGradient>
</defs>
</svg>
