<svg width="80" height="85" viewBox="0 0 80 85" fill="none" xmlns="http://www.w3.org/2000/svg">
<path d="M0.839116 29.8029C5.16526 43.9118 18.5977 44.5754 30.8496 45.3302C71.1974 47.8162 20.4685 81.5434 55.0215 84.8825C67.7315 86.1107 81.0209 75.4293 79.011 61.5978C77.1808 49.0039 59.0483 41.5029 59.0392 29.7343C59.0321 20.4489 76.1526 13.7329 65.0159 3.75057C55.0884 -5.14764 -7.95785 1.11357 0.839116 29.8029Z" fill="url(#paint0_linear)"/>
<path opacity="0.1" d="M58.6423 14.6639C58.6423 12.2633 56.7102 10.317 54.3269 10.317H25.4057C23.0231 10.317 21.0903 12.2623 21.0903 14.6639V49.2795C19.0716 50.9528 17.7841 53.4887 17.7841 56.3276V76.9855C17.7841 77.9022 18.5218 78.6453 19.4318 78.6453H50.4591C51.3692 78.6453 52.1069 77.9022 52.1069 76.9855V75.1679H57.1694C58.7583 75.1679 60.0464 73.8705 60.0464 72.27V70.966C60.0464 69.9086 59.4822 68.9861 58.6423 68.48V14.6639Z" fill="#507CDD"/>
<path d="M35.6129 66.3551H52.107V74.6621H35.6129V66.3551Z" fill="white"/>
<path d="M58.6423 10.6815V65.438C58.6423 67.8397 56.7111 69.7849 54.3268 69.7849H25.4056C23.023 69.7849 21.0902 67.8397 21.0902 65.438V10.6815C21.0902 8.27987 23.023 6.33466 25.4056 6.33466H54.3268C56.7111 6.33466 58.6423 8.27987 58.6423 10.6815Z" fill="white"/>
<path d="M21.0902 38.8116V65.4372C21.0902 67.8388 23.023 69.784 25.4056 69.784H54.3268C56.7111 69.784 58.6423 67.8388 58.6423 65.4372V38.8116H21.0902Z" fill="#6583FE"/>
<path d="M21.0902 50.7617V65.4372C21.0902 67.8388 23.023 69.784 25.4056 69.784H54.3268C56.7111 69.784 58.6423 67.8388 58.6423 65.4372V50.7617H21.0902Z" fill="white"/>
<path d="M21.0902 55.5749V65.4371C21.0902 67.8387 23.023 69.784 25.4056 69.784H54.3268C56.7111 69.784 58.6423 67.8387 58.6423 65.4371V55.5749H21.0902Z" fill="#6583FE"/>
<path d="M47.781 9.65745L48.8105 6.33365H30.7582L31.7877 9.65745C31.9752 10.2626 32.5315 10.6749 33.1609 10.6749H46.4079C47.0372 10.6749 47.5935 10.2628 47.781 9.65745Z" fill="#6583FE"/>
<path d="M17.7842 74.6622V52.3445C17.7842 47.3057 21.8394 43.2209 26.8418 43.2209H36.3322C38.7949 43.2209 40.7913 45.2318 40.7913 47.7125C40.7913 50.1931 38.7949 52.2041 36.3322 52.2041H28.6606C28.6606 52.2041 41.3667 53.2183 41.3667 74.6622" fill="white"/>
<path d="M58.3202 48.9317H50.7375C48.6603 48.9317 46.9765 47.2356 46.9765 45.1433C46.9765 43.051 48.6603 41.3549 50.7375 41.3549H58.3202C59.9091 41.3549 61.197 42.6524 61.197 44.2527V46.0339C61.1972 47.6342 59.9091 48.9317 58.3202 48.9317Z" fill="white"/>
<path d="M58.3201 56.5085H49.0113C46.9342 56.5085 45.2504 54.8124 45.2504 52.7202C45.2504 50.6279 46.9342 48.9318 49.0113 48.9318H58.3201C59.909 48.9318 61.1969 50.2292 61.1969 51.8295V53.6108C61.1971 55.2111 59.909 56.5085 58.3201 56.5085Z" fill="white"/>
<path d="M58.3202 64.0852H50.7375C48.6603 64.0852 46.9765 62.3891 46.9765 60.2968C46.9765 58.2045 48.6603 56.5085 50.7375 56.5085H58.3202C59.9091 56.5085 61.197 57.8059 61.197 59.4064V61.1874C61.1972 62.7877 59.9091 64.0852 58.3202 64.0852Z" fill="white"/>
<path d="M57.1695 71.1848H50.3543C48.408 71.1848 46.8301 69.5955 46.8301 67.635C46.8301 65.6745 48.408 64.0851 50.3543 64.0851H57.1695C58.7584 64.0851 60.0465 65.3825 60.0465 66.9829V68.2869C60.0463 69.8874 58.7582 71.1848 57.1695 71.1848Z" fill="white"/>
<path d="M28.3891 10.8819H25.7527C25.2976 10.8819 24.9288 10.5103 24.9288 10.0521V9.2255C24.9288 8.76725 25.2976 8.39563 25.7527 8.39563H28.3891C28.844 8.39563 29.213 8.76725 29.213 9.2255V10.0521C29.213 10.5103 28.844 10.8819 28.3891 10.8819Z" fill="#507CDD"/>
<path d="M51.5123 10.7591C51.0573 10.7591 50.6884 10.3875 50.6884 9.92927V9.34836C50.6884 8.89011 51.0573 8.51849 51.5123 8.51849C51.9672 8.51849 52.3362 8.89011 52.3362 9.34836V9.92927C52.3362 10.3877 51.9674 10.7591 51.5123 10.7591Z" fill="#507CDD"/>
<path d="M54.025 10.7591C53.5701 10.7591 53.2012 10.3875 53.2012 9.92927V9.34836C53.2012 8.89011 53.5701 8.51849 54.025 8.51849C54.48 8.51849 54.8489 8.89011 54.8489 9.34836V9.92927C54.8489 10.3877 54.4802 10.7591 54.025 10.7591Z" fill="#507CDD"/>
<path d="M45.5698 39.7367H35.3888C34.9338 39.7367 34.5649 39.3653 34.5649 38.9068C34.5649 38.4484 34.9338 38.077 35.3888 38.077H45.5698C46.0248 38.077 46.3937 38.4484 46.3937 38.9068C46.3937 39.3653 46.0249 39.7367 45.5698 39.7367Z" fill="#507CDD"/>
<path d="M62.021 46.0335V44.2524C62.021 42.197 60.3609 40.5248 58.3202 40.5248H50.7376C48.2095 40.5248 46.1528 42.5965 46.1528 45.143C46.1528 46.3993 46.6539 47.5393 47.4647 48.3727C45.6955 49.0133 44.4268 50.7199 44.4268 52.7197C44.4268 54.7195 45.6955 56.4261 47.4647 57.0667C46.654 57.9001 46.1528 59.0402 46.1528 60.2964C46.1528 61.7963 46.8668 63.1309 47.9698 63.9751C46.7882 64.7588 46.0061 66.1062 46.0061 67.6346C46.0061 68.0944 46.0773 68.5377 46.2083 68.9545H41.8476C41.2028 63.8508 39.5035 58.4126 35.5705 54.7798C34.786 54.0551 34.0008 53.4837 33.2567 53.0336H36.3322C39.2453 53.0336 41.6151 50.6464 41.6151 47.7121C41.6151 44.7779 39.2451 42.3908 36.3322 42.3908H26.8419C25.0483 42.3908 23.3663 42.8771 21.9148 43.7219V10.6805C21.9148 8.74123 23.481 7.16365 25.4062 7.16365H54.3274C56.2526 7.16365 57.8188 8.7414 57.8188 10.6805V35.7678C57.8188 36.2262 58.1876 36.5977 58.6427 36.5977C59.0978 36.5977 59.4665 36.2262 59.4665 35.7678V10.6805C59.4665 7.82605 57.1612 5.50391 54.3274 5.50391H25.4062C22.5724 5.50391 20.2671 7.82605 20.2671 10.6805V44.9221C18.2397 46.7461 16.9604 49.3971 16.9604 52.3443V74.6618C16.9604 75.1202 17.3293 75.4917 17.7843 75.4917C18.2392 75.4917 18.6081 75.1202 18.6081 74.6618V52.3441C18.6081 47.7709 22.3019 44.0504 26.8419 44.0504H36.3322C38.3366 44.0504 39.9673 45.693 39.9673 47.7121C39.9673 49.7312 38.3366 51.3737 36.3322 51.3737H28.6605H25.2561C24.8012 51.3737 24.4322 51.7451 24.4322 52.2035C24.4322 52.662 24.8012 53.0334 25.2561 53.0334H28.6187C28.9108 53.0671 31.7462 53.4561 34.5393 56.0797C38.4667 59.769 40.5427 66.1943 40.5427 74.6615C40.5427 75.1199 40.9115 75.4914 41.3666 75.4914C41.8217 75.4914 42.1905 75.1199 42.1905 74.6615C42.1905 73.3896 42.142 72.0238 42.0214 70.6139H47.1713C47.9658 71.4743 49.0983 72.014 50.354 72.014H51.2829V74.6615C51.2829 75.1199 51.6516 75.4914 52.1067 75.4914C52.5618 75.4914 52.9306 75.1199 52.9306 74.6615V72.014H57.1694C59.21 72.014 60.8701 70.3419 60.8701 68.2864V66.9824C60.8701 66.0443 60.5234 65.1865 59.9535 64.5308C61.1771 63.9218 62.0209 62.6521 62.0209 61.1869V59.4057C62.0209 58.2365 61.4832 57.1919 60.6445 56.5079C61.4834 55.8239 62.0209 54.7793 62.0209 53.6102V51.8289C62.0209 50.6598 61.4832 49.6152 60.6445 48.9312C61.4835 48.2472 62.021 47.2026 62.021 46.0335ZM59.2225 68.2868C59.2225 69.427 58.3016 70.3546 57.1696 70.3546H50.3544C48.8653 70.3546 47.6539 69.1344 47.6539 67.6346C47.6539 66.1349 48.8653 64.9147 50.3544 64.9147H50.7376H57.1696C58.3016 64.9147 59.2225 65.8423 59.2225 66.9825V68.2868ZM60.3733 51.8289V53.6102C60.3733 54.7504 59.4522 55.678 58.3202 55.678H57.1001C56.645 55.678 56.2762 56.0495 56.2762 56.5079C56.2762 56.9663 56.645 57.3378 57.1001 57.3378H58.3202C59.4522 57.3378 60.3733 58.2654 60.3733 59.4057V61.1869C60.3733 62.3271 59.4522 63.2548 58.3202 63.2548H50.7376C49.1181 63.2548 47.8005 61.9276 47.8005 60.2963C47.8005 58.6649 49.1181 57.3378 50.7376 57.3378H51.5536C52.0087 57.3378 52.3775 56.9663 52.3775 56.5079C52.3775 56.0495 52.0087 55.678 51.5536 55.678H49.0115C47.3919 55.678 46.0744 54.3509 46.0744 52.7196C46.0744 51.0882 47.3919 49.7611 49.0115 49.7611H50.7376H58.3202C59.4524 49.7611 60.3733 50.6887 60.3733 51.8289ZM50.7376 48.1013C49.1181 48.1013 47.8005 46.7742 47.8005 45.1428C47.8005 43.5115 49.1181 42.1843 50.7376 42.1843H58.3202C59.4522 42.1843 60.3733 43.112 60.3733 44.2522V46.0333C60.3733 47.1735 59.4522 48.1013 58.3202 48.1013H50.7376Z" fill="#507CDD"/>
<defs>
<linearGradient id="paint0_linear" x1="8.56147e-05" y1="42.4894" x2="79.2137" y2="42.4894" gradientUnits="userSpaceOnUse">
<stop stop-color="#D2DEFF" stop-opacity="0"/>
<stop offset="1" stop-color="#B7C5FF"/>
</linearGradient>
</defs>
</svg>
