<svg width="21" height="22" viewBox="0 0 21 22" fill="none" xmlns="http://www.w3.org/2000/svg">
<path d="M19.4472 0.500147H1.55282C1.35167 0.49737 1.15194 0.534006 0.965034 0.607963C0.778131 0.68192 0.607715 0.791749 0.463518 0.931178C0.319322 1.07061 0.204171 1.23691 0.124639 1.42057C0.0451082 1.60424 0.00275535 1.80169 0 2.00163V19.9984C0.00275535 20.1983 0.0451082 20.3958 0.124639 20.5794C0.204171 20.7631 0.319322 20.9294 0.463518 21.0688C0.607715 21.2082 0.778131 21.3181 0.965034 21.392C1.15194 21.466 1.35167 21.5026 1.55282 21.4999H19.4472C19.6483 21.5026 19.8481 21.466 20.035 21.392C20.2219 21.3181 20.3923 21.2082 20.5365 21.0688C20.6807 20.9294 20.7958 20.7631 20.8754 20.5794C20.9549 20.3958 20.9972 20.1983 21 19.9984V2.00163C20.9972 1.80169 20.9549 1.60424 20.8754 1.42057C20.7958 1.23691 20.6807 1.07061 20.5365 0.931178C20.3923 0.791749 20.2219 0.68192 20.035 0.607963C19.8481 0.534006 19.6483 0.49737 19.4472 0.500147ZM6.36972 18.0769H3.2007V8.62703H6.36972V18.0769ZM4.78521 7.30405C4.34816 7.30405 3.92902 7.13148 3.61998 6.8243C3.31094 6.51712 3.13732 6.10049 3.13732 5.66607C3.13732 5.23166 3.31094 4.81503 3.61998 4.50785C3.92902 4.20067 4.34816 4.0281 4.78521 4.0281C5.01728 4.00194 5.2523 4.02479 5.47487 4.09517C5.69744 4.16555 5.90254 4.28187 6.07675 4.4365C6.25096 4.59114 6.39034 4.7806 6.48578 4.99249C6.58121 5.20438 6.63055 5.43392 6.63055 5.66607C6.63055 5.89823 6.58121 6.12777 6.48578 6.33966C6.39034 6.55155 6.25096 6.74101 6.07675 6.89565C5.90254 7.05028 5.69744 7.16659 5.47487 7.23697C5.2523 7.30735 5.01728 7.33021 4.78521 7.30405ZM17.7993 18.0769H14.6303V13.0055C14.6303 11.735 14.1761 10.9055 13.0246 10.9055C12.6683 10.9081 12.3213 11.0192 12.0305 11.2238C11.7396 11.4285 11.5188 11.7168 11.3979 12.05C11.3152 12.2968 11.2794 12.5567 11.2923 12.8165V18.0664H8.12324C8.12324 18.0664 8.12324 9.47752 8.12324 8.61653H11.2923V9.95002C11.5801 9.45348 11.9988 9.04442 12.5033 8.76689C13.0077 8.48936 13.5788 8.35388 14.1549 8.37504C16.2676 8.37504 17.7993 9.72952 17.7993 12.638V18.0769Z" fill="#323232"/>
</svg>
