<svg width="90" height="67" viewBox="0 0 90 67" fill="none" xmlns="http://www.w3.org/2000/svg">
<path d="M87.3782 14.3826C83.4857 4.40601 71.4954 -1.5768 61.3399 2.3824C49.7477 6.90173 53.5912 25.4741 43.0619 29.2297C37.3741 31.2584 28.9661 23.6803 23.2195 22.5181C12.6303 20.3768 3.0441 27.9029 0.683602 38.325C-1.72461 48.9578 2.13789 63.1594 13.7357 66.0453C27.5508 69.483 34.7471 56.9735 46.3365 53.3816C58.2295 49.6954 71.4532 58.4011 81.299 47.809C88.5731 39.9839 91.2325 24.2616 87.3782 14.3826Z" fill="url(#paint0_linear)"/>
<path opacity="0.1" d="M83.021 18.7686C83.021 11.8419 77.4464 6.22653 70.5696 6.22653C65.2421 6.22653 60.6981 9.59806 58.9203 14.3375H13.8957C11.9725 14.3375 10.4136 15.9078 10.4136 17.8449V56.674C10.4136 58.6111 11.9725 60.1814 13.8957 60.1814H75.2456C77.1687 60.1814 78.7276 58.6111 78.7276 56.674V28.2392C81.3564 25.9395 83.021 22.551 83.021 18.7686Z" fill="#507CDD"/>
<path d="M75.2456 55.7971H13.8957C11.9725 55.7971 10.4136 54.2269 10.4136 52.2897V13.4607C10.4136 11.5235 11.9725 9.95322 13.8957 9.95322H75.2456C77.1687 9.95322 78.7276 11.5235 78.7276 13.4607V52.2897C78.7276 54.2269 77.1687 55.7971 75.2456 55.7971Z" fill="white"/>
<path d="M45.6313 26.6811L78.7278 52.2898C78.7278 54.2269 77.1689 55.7972 75.2457 55.7972H13.8957C11.9725 55.7972 10.4136 54.2269 10.4136 52.2898L43.5101 26.6811C44.1356 26.1971 45.0058 26.1971 45.6313 26.6811Z" fill="white"/>
<path d="M43.5101 39.0695L10.4136 13.4607C10.4136 11.5235 11.9725 9.95322 13.8957 9.95322H75.2456C77.1687 9.95322 78.7276 11.5235 78.7276 13.4607L45.6313 39.0695C45.0058 39.5533 44.1356 39.5533 43.5101 39.0695Z" fill="white"/>
<path d="M64.5835 51.1305H58.9888C58.5079 51.1305 58.1183 50.738 58.1183 50.2536V46.3684C58.1183 45.8842 58.5079 45.4916 58.9888 45.4916H64.5835C65.0643 45.4916 65.454 45.8842 65.454 46.3684V50.2536C65.454 50.738 65.0643 51.1305 64.5835 51.1305Z" fill="#6583FE"/>
<path d="M54.2981 47.5561H49.4523C48.9714 47.5561 48.5818 47.1634 48.5818 46.6792C48.5818 46.195 48.9714 45.8024 49.4523 45.8024H54.2981C54.779 45.8024 55.1687 46.195 55.1687 46.6792C55.1687 47.1634 54.779 47.5561 54.2981 47.5561Z" fill="#507CDD"/>
<path d="M54.2981 51.1305H37.265C36.7841 51.1305 36.3944 50.7379 36.3944 50.2537C36.3944 49.7695 36.7841 49.3768 37.265 49.3768H54.2981C54.779 49.3768 55.1686 49.7695 55.1686 50.2537C55.1686 50.7381 54.779 51.1305 54.2981 51.1305Z" fill="#507CDD"/>
<path d="M82.8439 16.3925C83.9441 9.55573 79.3339 3.11501 72.5466 2.00672C65.7592 0.898436 59.3651 5.54227 58.2648 12.379C57.1645 19.2158 61.7748 25.6565 68.5621 26.7648C75.3494 27.873 81.7436 23.2292 82.8439 16.3925Z" fill="#6583FE"/>
<path d="M70.5697 27.8032C77.9153 27.8032 83.8916 21.7836 83.8916 14.3843C83.8916 6.98503 77.9155 0.965393 70.5697 0.965393C63.2239 0.965393 57.2478 6.98503 57.2478 14.3843C57.2478 18.6886 59.2724 22.5233 62.4105 24.9805L45.1011 38.3739C44.7892 38.6156 44.3529 38.6158 44.0404 38.3739L11.3155 13.0527C11.5106 11.7953 12.5936 10.8301 13.8957 10.8301H53.8292C54.3101 10.8301 54.6998 10.4374 54.6998 9.9532C54.6998 9.469 54.3101 9.07634 53.8292 9.07634H13.8957C11.4957 9.07634 9.54309 11.0431 9.54309 13.4606V52.2897C9.54309 54.7072 11.4957 56.674 13.8957 56.674H75.2456C77.6456 56.674 79.5982 54.7072 79.5982 52.2897V29.1161C79.5982 28.6319 79.2086 28.2392 78.7277 28.2392C78.2468 28.2392 77.8572 28.6319 77.8572 29.1161V50.5104L55.0657 32.8752L63.9346 26.0129C65.8898 27.1493 68.1547 27.8032 70.5697 27.8032ZM34.0757 32.8752L11.2841 50.5104V15.24L34.0757 32.8752ZM77.8229 52.6953C77.6282 53.9535 76.5484 54.9203 75.2456 54.9203H13.8957C12.5929 54.9203 11.5131 53.9535 11.3184 52.6953L35.5048 33.9809L42.9798 39.7646C43.4481 40.127 44.0094 40.3083 44.5707 40.3083C45.132 40.3083 45.6932 40.1271 46.1617 39.7646L53.6367 33.9807L77.8229 52.6953ZM58.9888 14.3843C58.9888 7.95221 64.1839 2.71911 70.5697 2.71911C76.9555 2.71911 82.1506 7.95203 82.1506 14.3843C82.1506 20.8164 76.9555 26.0495 70.5697 26.0495C64.1839 26.0495 58.9888 20.8164 58.9888 14.3843Z" fill="#507CDD"/>
<path d="M65.1349 10.1071L66.9118 14.3843L65.1349 18.6614C64.8332 19.3878 65.5611 20.1156 66.28 19.8062L77.0081 15.1906C77.7129 14.8874 77.7129 13.8811 77.0081 13.5779L66.28 8.9623C65.5611 8.65294 64.8332 9.38073 65.1349 10.1071Z" fill="white"/>
<defs>
<linearGradient id="paint0_linear" x1="75.2712" y1="75.5982" x2="34.1535" y2="21.52" gradientUnits="userSpaceOnUse">
<stop stop-color="#D2DEFF" stop-opacity="0"/>
<stop offset="1" stop-color="#B7C5FF"/>
</linearGradient>
</defs>
</svg>
