<svg width="79" height="76" viewBox="0 0 79 76" fill="none" xmlns="http://www.w3.org/2000/svg">
<path opacity="0.1" d="M53.2604 21.9072C53.2603 21.9072 53.2601 21.9072 53.26 21.9072V10.7101C53.26 9.92203 52.6227 9.28247 51.8342 9.28247H21.1656C20.3772 9.28247 19.7399 9.92203 19.7399 10.7101V68.9226C19.7399 69.4551 20.3016 69.8005 20.7764 69.5579L22.7682 68.54C22.9721 68.4358 23.2131 68.4358 23.417 68.54L26.1202 69.9219C26.3241 70.0261 26.5651 70.0261 26.769 69.9219L29.4737 68.54C29.6761 68.4358 29.9185 68.4358 30.121 68.54L32.8257 69.9219C33.0296 70.0261 33.2705 70.0261 33.473 69.9219L36.1777 68.54C36.3816 68.4358 36.6225 68.4358 36.8264 68.54L39.5297 69.9219C39.7336 70.0261 39.9746 70.0261 40.1784 69.9219L42.8817 68.54C43.0856 68.4358 43.3266 68.4358 43.529 68.54L46.2337 69.9219C46.4362 70.0261 46.6771 70.0261 46.881 69.9219L49.5843 68.54C49.7882 68.4358 50.0292 68.4358 50.233 68.54L52.2234 69.5579C52.6982 69.8005 53.26 69.4551 53.26 68.9212V37.1163H53.2604C57.4551 37.1163 60.8554 33.7115 60.8554 29.5117C60.8554 25.3118 57.4551 21.9072 53.2604 21.9072Z" fill="#507CDD"/>
<path d="M67.2221 19.9858C57.8951 12.806 48.8485 18.6574 38.7579 16.5885C28.5943 14.5047 24.545 7.56621 12.9689 10.769C2.7144 13.606 -3.50771 24.9807 2.12955 34.5037C3.73597 37.2174 6.47262 39.2647 7.591 42.301C9.39504 47.1992 6.64898 50.9597 7.18465 55.7734C9.41058 75.774 39.9169 68.0269 51.1419 61.8042C68.746 52.0453 80.6553 30.3264 67.2221 19.9858Z" fill="url(#paint0_linear)"/>
<path d="M53.2599 7.14108V65.3522C53.2599 65.8861 52.6982 66.2316 52.2234 65.9889L50.233 64.971C50.0291 64.8668 49.7881 64.8668 49.5842 64.971L46.881 66.3529C46.6771 66.4571 46.4361 66.4571 46.2337 66.3529L43.529 64.971C43.3265 64.8668 43.0855 64.8668 42.8817 64.971L40.1784 66.3529C39.9745 66.4571 39.7335 66.4571 39.5296 66.3529L36.8264 64.971C36.6225 64.8668 36.3815 64.8668 36.1776 64.971L33.4729 66.3529C33.2705 66.4571 33.0295 66.4571 32.8256 66.3529L30.1209 64.971C29.9185 64.8668 29.6761 64.8668 29.4736 64.971L26.7689 66.3529C26.565 66.4571 26.3241 66.4571 26.1202 66.3529L23.4169 64.971C23.213 64.8668 22.9721 64.8668 22.7682 64.971L20.7764 65.9889C20.3016 66.2316 19.7398 65.8861 19.7398 65.3536V7.14108C19.7398 6.35306 20.3771 5.7135 21.1656 5.7135H51.8341C52.6226 5.7135 53.2599 6.35306 53.2599 7.14108Z" fill="white"/>
<path d="M39.8538 67.1445C39.6312 67.1445 39.4086 67.0926 39.2057 66.989L36.5018 65.6071L33.7978 66.989C33.3917 67.1963 32.9071 67.1961 32.5016 66.989L29.7974 65.6071L27.0933 66.989C26.6874 67.1963 26.2029 67.1963 25.7971 66.989L23.0924 65.6071L21.1006 66.6248C20.6551 66.8525 20.1345 66.8322 19.7079 66.5707C19.2813 66.3092 19.0267 65.8541 19.0267 65.3533V7.14174C19.0267 5.96099 19.9861 5.00037 21.1653 5.00037H28.1478C28.5415 5.00037 28.8607 5.32 28.8607 5.71416C28.8607 6.10831 28.5415 6.42795 28.1478 6.42795H21.1653C20.7723 6.42795 20.4525 6.74815 20.4525 7.14174V65.3531L22.4441 64.3354C22.85 64.1281 23.3347 64.1281 23.7403 64.3354L26.445 65.7173L29.1491 64.3354C29.5549 64.128 30.0395 64.1278 30.4456 64.3354L33.1495 65.7172L35.8535 64.3353C36.2592 64.1278 36.7439 64.1277 37.1499 64.3353L39.8538 65.717L42.5573 64.3353C42.9635 64.1278 43.448 64.1278 43.8538 64.3353L46.5574 65.7172L49.2604 64.3354C49.6664 64.128 50.1509 64.128 50.5567 64.3353L52.5475 65.3527V37.7724C52.5475 37.3782 52.8667 37.0586 53.2604 37.0586C53.654 37.0586 53.9733 37.3782 53.9733 37.7724V65.353C53.9733 65.8538 53.7186 66.3089 53.292 66.5704C52.8656 66.832 52.3447 66.8522 51.8993 66.6244L49.9087 65.6069L47.2055 66.9887C46.7997 67.1963 46.315 67.1964 45.9089 66.9887L43.2055 65.6069L40.5021 66.9887C40.2992 67.0926 40.0765 67.1445 39.8538 67.1445Z" fill="#507CDD"/>
<path d="M37.2128 32.0616H24.877C24.4832 32.0616 24.1641 31.742 24.1641 31.3478C24.1641 30.9537 24.4832 30.634 24.877 30.634H37.2128C37.6066 30.634 37.9257 30.9537 37.9257 31.3478C37.9257 31.7421 37.6066 32.0616 37.2128 32.0616Z" fill="#507CDD"/>
<path d="M26.5195 29.2022H24.877C24.4832 29.2022 24.1641 28.8826 24.1641 28.4884C24.1641 28.0943 24.4832 27.7747 24.877 27.7747H26.5195C26.9133 27.7747 27.2323 28.0943 27.2323 28.4884C27.2323 28.8826 26.9133 29.2022 26.5195 29.2022Z" fill="#507CDD"/>
<path d="M40.0644 38.5438H24.877C24.4832 38.5438 24.1641 38.2242 24.1641 37.83C24.1641 37.4358 24.4832 37.1162 24.877 37.1162H40.0644C40.4582 37.1162 40.7773 37.4358 40.7773 37.83C40.7773 38.2242 40.4582 38.5438 40.0644 38.5438Z" fill="#507CDD"/>
<path d="M26.5195 35.6842H24.877C24.4832 35.6842 24.1641 35.3645 24.1641 34.9704C24.1641 34.5762 24.4832 34.2566 24.877 34.2566H26.5195C26.9133 34.2566 27.2323 34.5762 27.2323 34.9704C27.2323 35.3645 26.9133 35.6842 26.5195 35.6842Z" fill="#507CDD"/>
<path d="M38.6386 45.0261H24.877C24.4832 45.0261 24.1641 44.7065 24.1641 44.3123C24.1641 43.9181 24.4832 43.5985 24.877 43.5985H38.6386C39.0324 43.5985 39.3515 43.9181 39.3515 44.3123C39.3515 44.7065 39.0324 45.0261 38.6386 45.0261Z" fill="#507CDD"/>
<path d="M26.5195 42.1664H24.877C24.4832 42.1664 24.1641 41.8467 24.1641 41.4526C24.1641 41.0584 24.4832 40.7388 24.877 40.7388H26.5195C26.9133 40.7388 27.2323 41.0584 27.2323 41.4526C27.2323 41.8469 26.9133 42.1664 26.5195 42.1664Z" fill="#507CDD"/>
<path d="M32.9355 51.5085H24.877C24.4832 51.5085 24.1641 51.1889 24.1641 50.7947C24.1641 50.4006 24.4832 50.0809 24.877 50.0809H32.9355C33.3293 50.0809 33.6484 50.4006 33.6484 50.7947C33.6484 51.1889 33.3293 51.5085 32.9355 51.5085Z" fill="#507CDD"/>
<path d="M39.4599 51.5085H36.3916C35.9978 51.5085 35.6787 51.1889 35.6787 50.7947C35.6787 50.4006 35.9978 50.0809 36.3916 50.0809H39.4599C39.8537 50.0809 40.1728 50.4006 40.1728 50.7947C40.1728 51.1889 39.8537 51.5085 39.4599 51.5085Z" fill="#507CDD"/>
<path d="M26.5195 48.6488H24.877C24.4832 48.6488 24.1641 48.3291 24.1641 47.935C24.1641 47.5408 24.4832 47.2212 24.877 47.2212H26.5195C26.9133 47.2212 27.2323 47.5408 27.2323 47.935C27.2323 48.3291 26.9133 48.6488 26.5195 48.6488Z" fill="#507CDD"/>
<path d="M47.7089 32.0615H45.3535C44.9597 32.0615 44.6406 31.7419 44.6406 31.3477C44.6406 30.9535 44.9597 30.6339 45.3535 30.6339H47.7089C48.1027 30.6339 48.4218 30.9535 48.4218 31.3477C48.4218 31.742 48.1026 32.0615 47.7089 32.0615Z" fill="#507CDD"/>
<path d="M47.7089 38.5438H45.3535C44.9597 38.5438 44.6406 38.2242 44.6406 37.83C44.6406 37.4358 44.9597 37.1162 45.3535 37.1162H47.7089C48.1027 37.1162 48.4218 37.4358 48.4218 37.83C48.4218 38.2242 48.1026 38.5438 47.7089 38.5438Z" fill="#507CDD"/>
<path d="M47.7089 45.0261H45.3535C44.9597 45.0261 44.6406 44.7065 44.6406 44.3123C44.6406 43.9181 44.9597 43.5985 45.3535 43.5985H47.7089C48.1027 43.5985 48.4218 43.9181 48.4218 44.3123C48.4218 44.7065 48.1026 45.0261 47.7089 45.0261Z" fill="#507CDD"/>
<path d="M47.7089 51.5084H45.3535C44.9597 51.5084 44.6406 51.1888 44.6406 50.7946C44.6406 50.4004 44.9597 50.0808 45.3535 50.0808H47.7089C48.1027 50.0808 48.4218 50.4004 48.4218 50.7946C48.4218 51.1888 48.1026 51.5084 47.7089 51.5084Z" fill="#507CDD"/>
<path d="M47.4729 48.6569C47.0792 48.6569 46.76 48.3373 46.76 47.9431V47.9267C46.76 47.5325 47.0792 47.2129 47.4729 47.2129C47.8666 47.2129 48.1858 47.5325 48.1858 47.9267V47.9431C48.1858 48.3374 47.8667 48.6569 47.4729 48.6569Z" fill="#507CDD"/>
<path d="M47.7089 59.7704H44.267C43.8732 59.7704 43.5541 59.4507 43.5541 59.0566C43.5541 58.6624 43.8732 58.3428 44.267 58.3428H47.7089C48.1027 58.3428 48.4217 58.6624 48.4217 59.0566C48.4217 59.4507 48.1025 59.7704 47.7089 59.7704Z" fill="#507CDD"/>
<path d="M29.7448 59.7704H24.8771C24.4833 59.7704 24.1642 59.4507 24.1642 59.0566C24.1642 58.6624 24.4833 58.3428 24.8771 58.3428H29.7448C30.1386 58.3428 30.4576 58.6624 30.4576 59.0566C30.4576 59.4507 30.1384 59.7704 29.7448 59.7704Z" fill="#507CDD"/>
<path d="M47.4729 42.1747C47.0792 42.1747 46.76 41.8551 46.76 41.4609V41.4445C46.76 41.0503 47.0792 40.7307 47.4729 40.7307C47.8666 40.7307 48.1858 41.0503 48.1858 41.4445V41.4609C48.1858 41.8551 47.8667 42.1747 47.4729 42.1747Z" fill="#507CDD"/>
<path d="M47.4729 35.6924C47.0792 35.6924 46.76 35.3728 46.76 34.9786V34.9622C46.76 34.568 47.0792 34.2484 47.4729 34.2484C47.8666 34.2484 48.1858 34.568 48.1858 34.9622V34.9786C48.1858 35.3728 47.8667 35.6924 47.4729 35.6924Z" fill="#507CDD"/>
<path d="M47.4729 29.2101C47.0792 29.2101 46.76 28.8905 46.76 28.4963V28.4799C46.76 28.0857 47.0792 27.7661 47.4729 27.7661C47.8666 27.7661 48.1858 28.0857 48.1858 28.4799V28.4963C48.1858 28.8905 47.8667 29.2101 47.4729 29.2101Z" fill="#01ECA5"/>
<path d="M53.2603 33.5476C57.4549 33.5476 60.8553 30.1429 60.8553 25.943C60.8553 21.7431 57.4549 18.3384 53.2603 18.3384C49.0657 18.3384 45.6653 21.7431 45.6653 25.943C45.6653 30.1429 49.0657 33.5476 53.2603 33.5476Z" fill="#6583FE"/>
<path d="M53.9732 17.6571V7.1415C53.9732 5.96074 53.0138 5.00012 51.8346 5.00012H32.3185C31.9248 5.00012 31.6056 5.31976 31.6056 5.71391C31.6056 6.10807 31.9248 6.4277 32.3185 6.4277H51.8346C52.2277 6.4277 52.5475 6.74791 52.5475 7.1415V17.6571C48.2992 18.0207 44.9525 21.5968 44.9525 25.9429C44.9525 30.5297 48.6795 34.2613 53.2605 34.2613C57.8415 34.2613 61.5684 30.5297 61.5684 25.9429C61.5682 21.5968 58.2215 18.0205 53.9732 17.6571ZM53.2604 32.8337C49.4655 32.8337 46.3781 29.7426 46.3781 25.9429C46.3781 22.1432 49.4655 19.052 53.2604 19.052C57.0552 19.052 60.1425 22.1432 60.1425 25.9429C60.1425 29.7426 57.0552 32.8337 53.2604 32.8337Z" fill="#507CDD"/>
<path d="M54.1893 25.2292H53.9732V23.7759H55.3211C55.7148 23.7759 56.034 23.4563 56.034 23.0621C56.034 22.668 55.7148 22.3483 55.3211 22.3483H53.9732V21.9894C53.9732 21.5953 53.6539 21.2756 53.2603 21.2756C52.8666 21.2756 52.5474 21.5953 52.5474 21.9894V22.3483H52.3313C51.1449 22.3483 50.1797 23.3147 50.1797 24.5025C50.1797 25.6904 51.1449 26.6568 52.3313 26.6568H52.5474V28.11H51.1996C50.806 28.11 50.4867 28.4297 50.4867 28.8238C50.4867 29.218 50.806 29.5376 51.1996 29.5376H52.5474V29.8965C52.5474 30.2907 52.8666 30.6103 53.2603 30.6103C53.6539 30.6103 53.9732 30.2907 53.9732 29.8965V29.5376H54.1893C55.3756 29.5376 56.3407 28.5713 56.3407 27.3834C56.3407 26.1955 55.3756 25.2292 54.1893 25.2292ZM52.3313 25.2292C51.931 25.2292 51.6055 24.9033 51.6055 24.5025C51.6055 24.1018 51.931 23.7759 52.3313 23.7759H52.5474V25.2292H52.3313ZM54.1893 28.11H53.9732V26.6568H54.1893C54.5894 26.6568 54.9149 26.9827 54.9149 27.3834C54.915 27.784 54.5894 28.11 54.1893 28.11Z" fill="white"/>
<path d="M39.4598 23.6124H33.54C33.1462 23.6124 32.8271 23.2928 32.8271 22.8986C32.8271 22.5045 33.1462 22.1848 33.54 22.1848H39.4598C39.8536 22.1848 40.1727 22.5045 40.1727 22.8986C40.1727 23.2928 39.8536 23.6124 39.4598 23.6124Z" fill="#507CDD"/>
<path d="M43.3807 18.3382H29.6191C29.2253 18.3382 28.9062 18.0186 28.9062 17.6244C28.9062 17.2303 29.2253 16.9106 29.6191 16.9106H43.3807C43.7745 16.9106 44.0936 17.2303 44.0936 17.6244C44.0936 18.0186 43.7745 18.3382 43.3807 18.3382Z" fill="#507CDD"/>
<path d="M46.9452 15.2053H26.0546C25.6608 15.2053 25.3417 14.8857 25.3417 14.4915C25.3417 14.0973 25.6608 13.7777 26.0546 13.7777H46.9452C47.339 13.7777 47.6581 14.0973 47.6581 14.4915C47.6581 14.8857 47.339 15.2053 46.9452 15.2053Z" fill="#507CDD"/>
<path d="M26.5195 12.0725H24.877C24.4832 12.0725 24.1641 11.7528 24.1641 11.3587C24.1641 10.9645 24.4832 10.6449 24.877 10.6449H26.5195C26.9133 10.6449 27.2323 10.9645 27.2323 11.3587C27.2323 11.7528 26.9133 12.0725 26.5195 12.0725Z" fill="#507CDD"/>
<defs>
<linearGradient id="paint0_linear" x1="-1.28506" y1="22.7954" x2="66.476" y2="55.3187" gradientUnits="userSpaceOnUse">
<stop stop-color="#D2DEFF" stop-opacity="0"/>
<stop offset="1" stop-color="#B7C5FF"/>
</linearGradient>
</defs>
</svg>
