<svg width="86" height="70" viewBox="0 0 86 70" fill="none" xmlns="http://www.w3.org/2000/svg">
<path d="M79.1932 11.8227C68.2052 3.37509 57.5476 10.2596 45.6599 7.82558C33.6863 5.37375 28.916 -2.7902 15.2784 0.978173C3.19779 4.31638 -4.13237 17.6998 2.50878 28.9045C4.40128 32.0974 7.62527 34.5062 8.94282 38.0788C11.0681 43.8419 7.83305 48.2666 8.46411 53.9303C11.0864 77.4631 47.0254 68.3477 60.2494 61.0261C80.9885 49.5438 95.0185 23.9895 79.1932 11.8227Z" fill="url(#paint0_linear)"/>
<path opacity="0.11" d="M69.4708 60.1328H66.0117V26.3429C66.0117 25.1525 65.0467 24.1873 63.8562 24.1873H52.5742V22.4237C52.5742 21.4496 51.7846 20.66 50.8105 20.66H48.543V15.8237C48.543 11.6251 45.5481 7.95668 41.4033 7.28699C36.052 6.42228 31.4101 10.5306 31.4101 15.698V20.6601H30.2444C28.6618 20.6601 27.3789 21.9431 27.3789 23.5257V24.1875H17.4266C15.5017 24.1875 13.9412 25.7615 13.9412 27.7051V60.1328H10.494C9.33671 60.1328 8.39844 61.0711 8.39844 62.2284V64.1682C8.39844 66.206 10.035 67.8594 12.0563 67.8594H67.8973C69.9185 67.8594 71.5548 66.2062 71.5548 64.1682V62.2166C71.5547 61.0657 70.6218 60.1328 69.4708 60.1328ZM35.2733 15.7891C35.2733 12.8326 37.9779 10.5004 41.0267 11.1687C43.179 11.6406 44.6797 13.6001 44.6797 15.8035V20.828H35.2734V15.7889H35.2733V15.7891Z" fill="#507CDD"/>
<path d="M49.812 22.6871C48.6652 22.7892 47.7031 21.8887 47.7031 20.7633V12.8C47.7031 10.5937 46.1993 8.62979 44.0429 8.16351C40.9971 7.50508 38.2969 9.82002 38.2969 12.7539V20.7041C38.2969 21.7132 37.5477 22.5976 36.5424 22.6871C35.3957 22.7892 34.4336 21.8887 34.4336 20.7633V12.8403C34.4336 8.64441 37.4251 4.98017 41.5662 4.30477C46.9206 3.43133 51.5664 7.56017 51.5664 12.7539V20.7041C51.5664 21.7134 50.8173 22.5976 49.812 22.6871Z" fill="#6E80F8"/>
<path d="M69.0351 24.6695V59.7961C69.0351 60.2602 68.6584 60.6368 68.194 60.6368H16.9648V24.6696C16.9648 22.7328 18.5343 21.1643 20.4707 21.1643H65.5295C67.4656 21.1641 69.0351 22.7326 69.0351 24.6695Z" fill="white"/>
<path d="M69.0351 52.9103V59.797C69.0351 60.2608 68.6591 60.6368 68.1953 60.6368H16.9648V52.9103H69.0351Z" fill="#6E80F8"/>
<path d="M74.5781 59.2459V61.1579C74.5781 63.1886 72.932 64.8361 70.8989 64.8361H15.1011C13.068 64.8361 11.4219 63.1886 11.4219 61.1579V59.2051C11.4219 58.0478 12.3601 57.1095 13.5175 57.1095H31.5024C31.8155 57.1095 32.1025 57.2835 32.2473 57.5612L33.3524 59.6813C33.497 59.9587 33.784 60.1329 34.0971 60.1329H51.9032C52.2163 60.1329 52.5033 59.9587 52.6481 59.6813L53.7532 57.5612C53.8978 57.2837 54.1849 57.1095 54.498 57.1095H72.4822C73.6397 57.1095 74.5781 58.0659 74.5781 59.2459Z" fill="white"/>
<path d="M25.0273 60.1329H17.8047C17.3409 60.1329 16.9648 59.7569 16.9648 59.2931V57.1095H25.8672V59.2931C25.8672 59.7569 25.4911 60.1329 25.0273 60.1329Z" fill="white"/>
<path d="M68.0273 60.1329H60.8047C60.3409 60.1329 59.9648 59.7569 59.9648 59.2931V57.1095H68.8672V59.2931C68.8672 59.7569 68.4911 60.1329 68.0273 60.1329Z" fill="white"/>
<path d="M52.7319 41.1525H33.4359C31.8533 41.1525 30.5703 39.8695 30.5703 38.2869V20.5024C30.5703 18.9198 31.8533 17.6368 33.4359 17.6368H52.7321C54.3147 17.6368 55.5976 18.9198 55.5976 20.5024V38.2867C55.5976 39.8693 54.3145 41.1525 52.7319 41.1525Z" fill="white"/>
<path d="M44.4562 55.5977H41.5747C41.1709 55.5977 40.7999 55.8683 40.7208 56.2642C40.6129 56.804 41.0226 57.2773 41.5433 57.2773H44.4248C44.8286 57.2773 45.1997 57.0067 45.2788 56.6108C45.3866 56.071 44.9768 55.5977 44.4562 55.5977Z" fill="#507CDD"/>
<path d="M44.4641 24.1147C44.1863 23.5547 43.6251 23.2068 43 23.2068C42.3748 23.2068 41.8136 23.5547 41.5358 24.1147L39.6856 27.8432C39.2071 28.8074 39.2071 29.9586 39.6856 30.9228L41.5358 34.6513C41.8136 35.2113 42.3748 35.5592 43 35.5592C43.6251 35.5592 44.1863 35.2113 44.4641 34.6513L46.3143 30.9228C46.7929 29.9586 46.7929 28.8074 46.3143 27.8432L44.4641 24.1147ZM43.0404 24.8611C43.0404 24.8611 43.0404 24.8613 43.0403 24.8614L42.2879 24.4881L43.0404 24.8611ZM44.8096 30.1761L43 33.8234L41.1903 30.1761C40.9439 29.6796 40.9439 29.0865 41.1903 28.59L43 24.9427L44.8096 28.59C45.0561 29.0865 45.0561 29.6796 44.8096 30.1761Z" fill="#507CDD"/>
<path d="M64.7437 34.8383C64.7437 33.2997 63.4918 32.0479 61.9532 32.0479C60.4147 32.0479 59.1628 33.2997 59.1628 34.8383C59.1628 35.5972 59.4681 36.2854 59.9615 36.7889C59.4681 37.2925 59.1628 37.9808 59.1628 38.7396C59.1628 39.2035 59.5387 39.5794 60.0026 39.5794C60.4666 39.5794 60.8425 39.2035 60.8425 38.7396C60.8425 38.1271 61.3408 37.6288 61.9532 37.6288C62.5657 37.6288 63.064 38.1271 63.064 38.7396C63.064 39.2035 63.4399 39.5794 63.9039 39.5794C64.3678 39.5794 64.7437 39.2035 64.7437 38.7396C64.7437 37.9807 64.4383 37.2925 63.945 36.7889C64.4383 36.2854 64.7437 35.5972 64.7437 34.8383ZM61.9532 33.7275C62.5657 33.7275 63.064 34.2259 63.064 34.8383C63.064 35.4507 62.5657 35.9491 61.9532 35.9491C61.3408 35.9491 60.8425 35.4507 60.8425 34.8383C60.8425 34.2259 61.3407 33.7275 61.9532 33.7275Z" fill="#507CDD"/>
<path d="M72.4741 56.3136H69.836V24.71C69.836 22.3163 67.8886 20.3687 65.4949 20.3687H56.3349C56.2341 18.4149 54.6129 16.8563 52.6345 16.8563H52.3663V12.7338C52.3663 7.56929 48.1645 3.36755 43 3.36755C37.8355 3.36755 33.6337 7.56929 33.6337 12.7338V16.8563H33.3655C31.387 16.8563 29.7659 18.4149 29.6651 20.3687H20.5048C18.1111 20.3687 16.1635 22.3163 16.1635 24.71V56.3135H13.5257C11.9071 56.3135 10.5903 57.6303 10.5903 59.2489V61.1746C10.5903 63.6658 12.617 65.6925 15.1081 65.6925C15.5721 65.6925 15.948 65.3166 15.948 64.8527C15.948 64.3887 15.5721 64.0128 15.1081 64.0128C13.5432 64.0128 12.27 62.7396 12.27 61.1746V59.2489C12.27 58.5565 12.8333 57.9932 13.5257 57.9932H16.1781V59.3567C16.1781 60.2829 16.9316 61.0364 17.8578 61.0364H25.1364C26.0625 61.0364 26.816 60.2829 26.816 59.3567V57.9932H31.5096L32.6115 60.0672C32.9036 60.617 33.472 60.9588 34.0948 60.9588H51.9047C52.5274 60.9588 53.0958 60.6173 53.3882 60.0672L54.4901 57.9932H59.1626V59.3567C59.1626 60.2829 59.9161 61.0364 60.8423 61.0364H68.1209C69.0471 61.0364 69.8006 60.2829 69.8006 59.3567V57.9932H72.474C73.1663 57.9932 73.7297 58.5565 73.7297 59.2489V61.1746C73.7297 62.7396 72.4563 64.0128 70.8914 64.0128H19.8282C19.3643 64.0128 18.9884 64.3887 18.9884 64.8527C18.9884 65.3166 19.3643 65.6925 19.8282 65.6925H70.8914C73.3827 65.6925 75.4094 63.6658 75.4094 61.1746V59.2489C75.4094 57.6303 74.0925 56.3136 72.4741 56.3136ZM35.3134 12.7338C35.3134 8.49547 38.7615 5.04724 43 5.04724C47.2385 5.04724 50.6866 8.4953 50.6866 12.7338V16.8563H48.503V12.7338C48.503 9.69964 46.0344 7.23083 43 7.23083C39.9656 7.23083 37.497 9.69947 37.497 12.7338V16.8563H35.3134V12.7338ZM46.8233 16.8563H39.1769V12.7338C39.1769 10.6256 40.892 8.91052 43.0002 8.91052C45.1083 8.91052 46.8235 10.6256 46.8235 12.7338V16.8563H46.8233ZM20.505 22.0485H29.6603V38.3188C29.6603 40.362 31.3225 42.0242 33.3657 42.0242H52.6345C54.6777 42.0242 56.3399 40.362 56.3399 38.3188V25.9284C56.3399 25.4645 55.964 25.0886 55.5001 25.0886C55.0361 25.0886 54.6602 25.4645 54.6602 25.9284V38.3188C54.6602 39.4356 53.7515 40.3445 52.6345 40.3445H33.3657C32.2488 40.3445 31.3399 39.4358 31.3399 38.3188V20.5617C31.3399 19.4448 32.2487 18.536 33.3657 18.536H52.6345C53.7513 18.536 54.6602 19.4447 54.6602 20.5617V21.2087C54.6602 21.6726 55.0361 22.0485 55.5001 22.0485H65.495C66.9626 22.0485 68.1565 23.2424 68.1565 24.7102V52.1401H17.8435V24.71C17.8435 23.2424 19.0374 22.0485 20.505 22.0485ZM25.1375 59.3569H17.8578V57.9933H25.1369L25.1375 59.3569ZM53.0066 57.2052L51.9047 59.2791L34.0948 59.2793L32.9929 57.2055C32.701 56.6554 32.1326 56.3135 31.5096 56.3135H17.8433V53.8195H68.1562V56.3135H54.4901C53.8672 56.3136 53.299 56.6553 53.0066 57.2052ZM60.8425 59.3569V57.9933H68.1216L68.1222 59.3569H60.8425Z" fill="#507CDD"/>
<defs>
<linearGradient id="paint0_linear" x1="40.2087" y1="8.21242" x2="55.3252" y2="86.566" gradientUnits="userSpaceOnUse">
<stop stop-color="#D2DBFC" stop-opacity="0"/>
<stop offset="1" stop-color="#B8C1FB"/>
</linearGradient>
</defs>
</svg>
