<svg width="65" height="73" viewBox="0 0 65 73" fill="none" xmlns="http://www.w3.org/2000/svg">
<path d="M61.9774 56.2927C60.488 46.9546 58.8418 37.64 57.5092 28.2782C56.8152 23.4015 55.1899 16.8819 49.5956 16.0314C43.6195 15.1229 41.1964 21.95 36.4067 23.4085C31.4533 24.917 27.7986 18.8594 25.8945 14.5629C23.6549 9.51009 22.8728 0 15.3432 0C1.84284 0 4.70271 21.3464 8.48333 29.7151C10.5449 34.2787 6.7805 38.9661 5.24187 43.286C2.55326 50.8348 5.2114 59.6429 11.0108 65.1728C14.4992 68.4989 19.2163 67.2043 22.5666 64.1189C26.6381 60.3692 27.845 52.7064 33.3638 51.2975C37.9978 50.1145 41.1222 55.221 42.0564 59.2663C42.7528 62.2823 43.2092 65.452 44.8822 68.0564C48.9561 74.3981 59.2091 73.2907 61.818 66.2035C62.9735 63.0651 62.5042 59.5958 61.9774 56.2927Z" fill="url(#paint0_linear)"/>
<path opacity="0.1" d="M64.2949 23.6093C64.2949 18.9347 60.5054 15.1452 55.8308 15.1452C54.6938 15.1452 53.6098 15.3709 52.6192 15.7776C52.6902 15.3794 52.7293 14.9702 52.7293 14.5516C52.7293 10.714 49.6183 7.60303 45.7807 7.60303C42.2011 7.60303 39.2549 10.31 38.8747 13.7883C37.1813 13.4602 35.4329 13.2864 33.6438 13.2864C19.5611 13.2864 7.96702 23.9338 6.46789 37.6173C3.19582 38.1806 0.705692 41.0301 0.705692 44.4631C0.705692 47.7195 2.94613 50.4517 5.96936 51.2049C4.14902 52.7573 2.99325 55.066 2.99325 57.646C2.99325 62.3206 6.78276 66.1101 11.4573 66.1101C14.0823 66.1101 16.428 64.915 17.9806 63.0393C22.4169 66.1456 27.817 67.9697 33.6438 67.9697C48.7441 67.9697 60.9854 55.7283 60.9854 40.628C60.9854 37.354 60.4092 34.2146 59.3538 31.3051C62.2689 29.9682 64.2949 27.0262 64.2949 23.6093Z" fill="#507CDD"/>
<path d="M33.6435 64.5839C48.7439 64.5839 60.9852 52.3426 60.9852 37.2422C60.9852 22.1418 48.7439 9.90057 33.6435 9.90057C18.5432 9.90057 6.3019 22.1418 6.3019 37.2422C6.3019 52.3426 18.5432 64.5839 33.6435 64.5839Z" fill="#6583FE"/>
<path d="M19.9206 57.646C19.9206 58.6786 19.7358 59.6689 19.3973 60.583C15.0425 57.9197 11.4918 54.0728 9.19102 49.4895C9.91187 49.2892 10.6722 49.1819 11.4566 49.1819C16.1316 49.1819 19.9206 52.971 19.9206 57.646Z" fill="#8399FE"/>
<path d="M33.6435 60.7827C46.6446 60.7827 57.184 50.2433 57.184 37.2423C57.184 24.2413 46.6446 13.7018 33.6435 13.7018C20.6425 13.7018 10.1031 24.2413 10.1031 37.2423C10.1031 50.2433 20.6425 60.7827 33.6435 60.7827Z" fill="white"/>
<path d="M57.1835 37.242C57.1835 43.7317 54.5438 49.6155 50.2805 53.8787L33.6438 37.242V13.7023C46.6231 13.7023 57.1835 24.2626 57.1835 37.242Z" fill="#6583FE"/>
<path d="M7.65408 48.0259C11.4917 48.0259 14.6027 44.9149 14.6027 41.0773C14.6027 37.2397 11.4917 34.1287 7.65408 34.1287C3.81648 34.1287 0.705498 37.2397 0.705498 41.0773C0.705498 44.9149 3.81648 48.0259 7.65408 48.0259Z" fill="white"/>
<path d="M12.4427 46.1133C11.1957 47.2975 9.51021 48.0264 7.65375 48.0264C5.7973 48.0264 4.11309 47.2988 2.86605 46.1145C2.93503 45.9853 3.04083 45.877 3.17019 45.8031L6.66769 43.8185V42.6268H8.63996V43.8185L12.1375 45.8031C12.2679 45.8768 12.3726 45.9852 12.4427 46.1133Z" fill="#6583FE"/>
<path d="M5.2117 39.1787L5.29859 40.9798C5.35925 42.2366 6.39582 43.2243 7.65401 43.2243C8.91219 43.2243 9.94876 42.2366 10.0094 40.9798L10.0963 39.1787C10.1636 37.7836 9.05072 36.6156 7.65401 36.6156C6.25729 36.6156 5.14427 37.7835 5.2117 39.1787Z" fill="#6583FE"/>
<path d="M45.7806 18.1145C49.6182 18.1145 52.7292 15.0035 52.7292 11.1659C52.7292 7.32833 49.6182 4.21735 45.7806 4.21735C41.943 4.21735 38.832 7.32833 38.832 11.1659C38.832 15.0035 41.943 18.1145 45.7806 18.1145Z" fill="#6583FE"/>
<path d="M50.5693 16.2019C49.3222 17.3861 47.6368 18.115 45.7803 18.115C43.9239 18.115 42.2396 17.3874 40.9926 16.2032C41.0616 16.0739 41.1674 15.9656 41.2968 15.8917L44.7942 13.9071V12.7154H46.7665V13.9071L50.264 15.8917C50.3945 15.9655 50.4992 16.0738 50.5693 16.2019Z" fill="white"/>
<path d="M43.338 9.26729L43.4249 11.0684C43.4856 12.3252 44.5222 13.313 45.7804 13.313C47.0385 13.313 48.0751 12.3252 48.1358 11.0684L48.2227 9.26729C48.29 7.87227 47.1771 6.70422 45.7804 6.70422C44.3838 6.70422 43.2708 7.87227 43.338 9.26729Z" fill="white"/>
<path d="M55.8306 28.6877C60.5051 28.6877 64.2946 24.8982 64.2946 20.2236C64.2946 15.549 60.5051 11.7595 55.8306 11.7595C51.156 11.7595 47.3665 15.549 47.3665 20.2236C47.3665 24.8982 51.156 28.6877 55.8306 28.6877Z" fill="white"/>
<path d="M60.145 17.4926L58.5615 15.9091C58.27 15.6177 57.7976 15.6177 57.5062 15.9091L55.8305 17.5847L54.1549 15.9091C53.8635 15.6177 53.3911 15.6177 53.0996 15.9091L51.5161 17.4926C51.2247 17.7841 51.2247 18.2565 51.5161 18.548L53.1917 20.2236L51.5161 21.8992C51.2247 22.1906 51.2247 22.663 51.5161 22.9545L53.0996 24.538C53.3911 24.8294 53.8635 24.8294 54.1549 24.538L55.8305 22.8624L57.5062 24.538C57.7976 24.8294 58.27 24.8294 58.5615 24.538L60.145 22.9545C60.4364 22.663 60.4364 22.1906 60.145 21.8992L58.4694 20.2236L60.145 18.548C60.4364 18.2565 60.4364 17.7841 60.145 17.4926Z" fill="#6583FE"/>
<path d="M11.457 62.7243C16.1315 62.7243 19.921 58.9348 19.921 54.2602C19.921 49.5856 16.1315 45.7961 11.457 45.7961C6.78238 45.7961 2.99289 49.5856 2.99289 54.2602C2.99289 58.9348 6.78238 62.7243 11.457 62.7243Z" fill="#6583FE"/>
<path d="M9.68305 58.651L6.41014 55.3781C6.10712 55.075 6.10712 54.5838 6.41014 54.2808L7.80671 52.8843C8.10972 52.5812 8.60092 52.5812 8.90394 52.8843L10.2318 54.2121L14.0099 50.434C14.3129 50.131 14.8041 50.131 15.1071 50.434L16.5037 51.8306C16.8067 52.1336 16.8067 52.6248 16.5037 52.9278L10.7804 58.651C10.4773 58.9538 9.98607 58.9538 9.68305 58.651Z" fill="white"/>
<path d="M30.7114 49.7438H23.1335C22.666 49.7438 22.2871 49.3649 22.2871 48.8974V38.4981C22.2871 38.0306 22.666 37.6517 23.1335 37.6517H30.7114C31.1789 37.6517 31.5578 38.0306 31.5578 38.4981V48.8974C31.5578 49.3649 31.1789 49.7438 30.7114 49.7438Z" fill="#6583FE"/>
<path d="M24.5225 28.9646H18.5446C18.1551 28.9646 17.8392 28.6488 17.8392 28.2593V26.0571C17.8392 25.6676 18.1551 25.3517 18.5446 25.3517H24.5225C24.912 25.3517 25.2278 25.6676 25.2278 26.0571V28.2593C25.2278 28.6488 24.912 28.9646 24.5225 28.9646Z" fill="#6583FE"/>
<path d="M46.3716 35.126H51.5031C51.8926 35.126 52.2084 34.8102 52.2084 34.4207V32.2185C52.2084 31.829 51.8926 31.5131 51.5031 31.5131H46.3716C45.9821 31.5131 45.6662 31.829 45.6662 32.2185V34.4207C45.6662 34.8103 45.9821 35.126 46.3716 35.126Z" fill="white"/>
<path d="M65 20.2236C65 15.1676 60.8866 11.0542 55.8306 11.0542C54.9998 11.0542 54.1955 11.1672 53.4296 11.3753C53.4314 11.3053 53.4343 11.2355 53.4343 11.1655C53.4343 6.94574 50.0005 3.51257 45.7799 3.51257C41.56 3.51257 38.127 6.94574 38.127 11.1655C38.127 11.9738 38.2538 12.7529 38.4871 13.4849C36.8987 13.1619 35.2756 12.9964 33.6438 12.9964C27.6472 12.9964 21.8874 15.2115 17.4254 19.2335C13.214 23.0297 10.478 28.1365 9.65807 33.6912C9.0189 33.5176 8.34741 33.4232 7.65392 33.4232C7.52809 33.4232 7.4031 33.4267 7.27868 33.4327C9.14445 20.3581 20.3259 10.6055 33.6438 10.6055C33.9981 10.6055 34.3838 10.6145 34.8229 10.633C35.2115 10.654 35.5409 10.3476 35.5574 9.95811C35.5739 9.5689 35.2718 9.24007 34.8826 9.22371C34.4233 9.20424 34.0181 9.19479 33.6438 9.19479C26.6915 9.19479 20.0218 11.7574 14.8636 16.4106C9.87109 20.9143 6.67547 27.0183 5.82611 33.6455C2.48562 34.4674 0 37.4868 0 41.0771C0 42.9859 0.706891 44.8144 1.99047 46.2257C2.12956 46.3787 2.32071 46.4565 2.51242 46.4565C2.6817 46.4565 2.85169 46.3958 2.98683 46.2729C3.27503 46.0108 3.29619 45.5646 3.03395 45.2766C1.98722 44.1256 1.41068 42.6344 1.41068 41.0771C1.41068 37.6346 4.21144 34.8339 7.65392 34.8339C11.0964 34.8339 13.8972 37.6346 13.8972 41.0771C13.8972 42.5674 13.3638 44.0089 12.3955 45.1385C12.0868 45.107 11.7737 45.0908 11.457 45.0908C6.40096 45.0908 2.28756 49.2042 2.28756 54.2602C2.28756 59.3162 6.40096 63.4296 11.457 63.4296C14.0633 63.4296 16.4172 62.3348 18.0883 60.583C22.6985 63.6636 28.0629 65.2892 33.6438 65.2892C49.109 65.2892 61.691 52.7073 61.691 37.2421C61.691 34.168 61.1965 31.1526 60.223 28.2704C63.0671 26.7115 65 23.6892 65 20.2236ZM45.7799 4.92325C49.2227 4.92325 52.0236 7.72359 52.0236 11.1655C52.0236 11.4131 52.0078 11.6605 51.979 11.9054C49.7278 12.952 47.9707 14.8852 47.1573 17.2546C46.707 17.3558 46.2456 17.4092 45.7799 17.4092C42.338 17.4092 39.5377 14.6084 39.5377 11.1655C39.5377 7.72359 42.338 4.92325 45.7799 4.92325ZM11.0098 34.1999C12.5191 22.8802 22.1604 14.4072 33.6438 14.4072C35.5295 14.4072 37.4025 14.6414 39.2173 15.0981C40.5567 17.3258 42.9969 18.8199 45.7801 18.8199C46.1158 18.8199 46.4499 18.7971 46.7807 18.7538C46.7032 19.2326 46.6613 19.7232 46.6613 20.2236C46.6613 25.0249 50.3713 28.9734 55.0747 29.3593C56.0061 31.8808 56.4787 34.5302 56.4787 37.2418C56.4787 49.8336 46.235 60.0778 33.644 60.0778C28.8896 60.0778 24.3475 58.6316 20.4785 55.8908C20.574 55.3612 20.6267 54.8169 20.6267 54.2601C20.6267 50.066 17.7952 46.5231 13.944 45.4361C14.8274 44.1616 15.3081 42.6414 15.3081 41.0771C15.308 38.06 13.5525 35.4457 11.0098 34.1999ZM11.4571 62.0189C7.17895 62.0189 3.69838 58.5384 3.69838 54.2602C3.69838 49.982 7.17895 46.5015 11.4571 46.5015C15.7353 46.5015 19.2158 49.982 19.2158 54.2602C19.2158 58.5384 15.7353 62.0189 11.4571 62.0189ZM60.2803 37.2419C60.2803 51.9293 48.3313 63.8784 33.6438 63.8784C28.3895 63.8784 23.338 62.361 18.986 59.4849C19.4441 58.827 19.8183 58.1071 20.0929 57.3397C24.1064 60.0572 28.7701 61.4885 33.6438 61.4885C47.0129 61.4885 57.8892 50.6115 57.8892 37.2418C57.8892 34.5374 57.446 31.8912 56.5725 29.3603C57.3936 29.2941 58.185 29.1212 58.9314 28.8522C59.8266 31.5491 60.2803 34.3686 60.2803 37.2419ZM55.8306 27.9824C51.5524 27.9824 48.0718 24.5018 48.0718 20.2236C48.0718 15.9455 51.5524 12.4649 55.8306 12.4649C60.1088 12.4649 63.5893 15.9455 63.5893 20.2236C63.5893 24.5018 60.1089 27.9824 55.8306 27.9824Z" fill="#507CDD"/>
<path d="M18.5342 32.7558H27.9186C28.3082 32.7558 28.6239 32.4401 28.6239 32.0505C28.6239 31.6609 28.3082 31.3452 27.9186 31.3452H18.5342C18.1447 31.3452 17.8288 31.6609 17.8288 32.0505C17.8288 32.4401 18.1445 32.7558 18.5342 32.7558Z" fill="#507CDD"/>
<path d="M18.5342 35.5564H27.9186C28.3082 35.5564 28.6239 35.2407 28.6239 34.8511C28.6239 34.4615 28.3082 34.1458 27.9186 34.1458H18.5342C18.1447 34.1458 17.8288 34.4615 17.8288 34.8511C17.8288 35.2407 18.1445 35.5564 18.5342 35.5564Z" fill="#507CDD"/>
<path d="M18.5342 38.357H27.9186C28.3082 38.357 28.6239 38.0413 28.6239 37.6517C28.6239 37.2621 28.3082 36.9464 27.9186 36.9464H18.5342C18.1447 36.9464 17.8288 37.2621 17.8288 37.6517C17.8288 38.0413 18.1445 38.357 18.5342 38.357Z" fill="#507CDD"/>
<path d="M18.5342 41.1576H27.9186C28.3082 41.1576 28.6239 40.8419 28.6239 40.4523C28.6239 40.0627 28.3082 39.7469 27.9186 39.7469H18.5342C18.1447 39.7469 17.8288 40.0627 17.8288 40.4523C17.8288 40.8419 18.1445 41.1576 18.5342 41.1576Z" fill="#507CDD"/>
<path d="M42.9755 38.9172H51.5135C51.903 38.9172 52.2189 38.6015 52.2189 38.2119C52.2189 37.8222 51.903 37.5065 51.5135 37.5065H42.9755C42.5859 37.5065 42.2702 37.8222 42.2702 38.2119C42.2702 38.6015 42.5859 38.9172 42.9755 38.9172Z" fill="#507CDD"/>
<path d="M42.9755 41.7179H51.5135C51.903 41.7179 52.2189 41.4022 52.2189 41.0125C52.2189 40.6229 51.903 40.3072 51.5135 40.3072H42.9755C42.5859 40.3072 42.2702 40.6229 42.2702 41.0125C42.2702 41.4022 42.5859 41.7179 42.9755 41.7179Z" fill="#507CDD"/>
<path d="M29.1493 47.7197C29.5389 47.7197 29.8547 47.4039 29.8547 47.0144C29.8547 46.6248 29.5389 46.309 29.1493 46.309C28.7598 46.309 28.444 46.6248 28.444 47.0144C28.444 47.4039 28.7598 47.7197 29.1493 47.7197Z" fill="#507CDD"/>
<path d="M31.5579 47.7197C31.9475 47.7197 32.2633 47.4039 32.2633 47.0144C32.2633 46.6248 31.9475 46.309 31.5579 46.309C31.1684 46.309 30.8526 46.6248 30.8526 47.0144C30.8526 47.4039 31.1684 47.7197 31.5579 47.7197Z" fill="#507CDD"/>
<path d="M33.9666 47.7197C34.3561 47.7197 34.6719 47.4039 34.6719 47.0144C34.6719 46.6248 34.3561 46.309 33.9666 46.309C33.577 46.309 33.2612 46.6248 33.2612 47.0144C33.2612 47.4039 33.577 47.7197 33.9666 47.7197Z" fill="#507CDD"/>
<path d="M34.0225 6.98977C33.8419 6.98977 33.6615 6.92093 33.5237 6.78311L32.0424 5.30189C31.7669 5.02653 31.7669 4.57991 32.0424 4.30454L33.5237 2.82333C33.7992 2.54782 34.2456 2.54782 34.5211 2.82333L36.0024 4.30454C36.2779 4.57991 36.2779 5.02653 36.0024 5.30189L34.5211 6.78311C34.3835 6.92093 34.203 6.98977 34.0225 6.98977ZM33.5387 4.80322L34.0225 5.28694L34.5062 4.80322L34.0225 4.3195L33.5387 4.80322Z" fill="#6583FE"/>
<path d="M57.184 64.9108C57.0034 64.9108 56.823 64.842 56.6851 64.7042L55.2039 63.223C54.9284 62.9476 54.9284 62.501 55.2039 62.2256L56.6851 60.7444C56.9606 60.4689 57.4071 60.4689 57.6826 60.7444L59.1638 62.2256C59.4394 62.501 59.4394 62.9476 59.1638 63.223L57.6826 64.7042C57.545 64.8419 57.3645 64.9108 57.184 64.9108ZM56.7002 62.7243L57.184 63.208L57.6677 62.7243L57.184 62.2406L56.7002 62.7243Z" fill="#6583FE"/>
<path d="M6.18306 22.4102C6.0025 22.4102 5.82207 22.3413 5.68425 22.2035L4.20304 20.7223C3.92753 20.4469 3.92753 20.0003 4.20304 19.725L5.68425 18.2437C5.95975 17.9682 6.40623 17.9682 6.68174 18.2437L8.16295 19.725C8.43846 20.0003 8.43846 20.4469 8.16295 20.7223L6.68174 22.2035C6.54406 22.3413 6.36349 22.4102 6.18306 22.4102ZM5.69934 20.2236L6.18306 20.7073L6.66679 20.2236L6.18306 19.7399L5.69934 20.2236Z" fill="#6583FE"/>
<path d="M61.7917 53.6321C61.6112 53.6321 61.4307 53.5632 61.2929 53.4254C61.0174 53.15 61.0174 52.7034 61.2929 52.428L62.7036 51.0174C62.9791 50.7419 63.4256 50.7419 63.7011 51.0174C63.9766 51.2927 63.9766 51.7393 63.7011 52.0147L62.2904 53.4254C62.1527 53.5631 61.9723 53.6321 61.7917 53.6321Z" fill="#6583FE"/>
<path d="M21.0338 67.1689C20.8532 67.1689 20.6728 67.1 20.5349 66.9622C20.2594 66.6868 20.2594 66.2402 20.5349 65.9648L21.9456 64.5542C22.2211 64.2787 22.6676 64.2787 22.9431 64.5542C23.2186 64.8295 23.2186 65.2761 22.9431 65.5515L21.5324 66.9622C21.3947 67.0999 21.2143 67.1689 21.0338 67.1689Z" fill="#6583FE"/>
<defs>
<linearGradient id="paint0_linear" x1="4.18979" y1="36.1134" x2="62.5338" y2="36.1134" gradientUnits="userSpaceOnUse">
<stop stop-color="#D2DEFF" stop-opacity="0"/>
<stop offset="1" stop-color="#B7C5FF"/>
</linearGradient>
</defs>
</svg>
