<svg width="80" height="90" viewBox="0 0 80 90" fill="none" xmlns="http://www.w3.org/2000/svg">
<path d="M12.4785 6.65635C-11.0826 27.4684 19.239 47.642 16.3511 70.3833C15.0671 80.4939 19.1462 90.1594 32.4915 89.0549C48.755 87.7087 42.8513 72.1304 46.2572 61.7592C52.1175 43.9134 88.1692 48.0816 73.225 20.5927C63.6879 3.05031 28.6949 -7.66806 12.4785 6.65635Z" fill="url(#paint0_linear)"/>
<path opacity="0.1" d="M54.9563 24.1249C54.5225 24.1249 54.098 24.2864 53.6864 24.5921L34.559 31.6296V30.6052C34.559 25.8358 30.6927 21.9694 25.9233 21.9694H22.2121C22.3167 21.4687 22.3724 20.9502 22.3724 20.4184C22.3724 16.2517 18.9946 12.8739 14.828 12.8739C10.6613 12.8739 7.28351 16.2517 7.28351 20.4184C7.28351 21.7046 7.60612 22.9152 8.1737 23.9748C6.27701 25.5589 5.06978 27.9407 5.06978 30.605C5.06978 35.3744 8.93611 39.2407 13.7055 39.2407H13.8721L4.29031 42.7662C2.23589 43.522 0.870735 45.4789 0.870735 47.6681V55.7724C0.870735 57.9615 2.23589 59.9184 4.29031 60.6743L7.28351 61.7757V70.7948C7.28351 73.1332 8.68888 75.199 10.8638 76.0578L26.8234 82.3592C27.4954 82.6245 28.2004 82.7551 28.902 82.7551C30.021 82.7551 31.1312 82.4227 32.0839 81.7745C33.6342 80.7198 34.5597 78.9709 34.5597 77.096V71.8111C34.5597 71.8111 54.5226 79.3157 54.9565 79.3157C58.7711 79.3157 61.8634 66.9607 61.8634 51.7202C61.8634 36.4798 58.771 24.1249 54.9563 24.1249ZM30.2069 77.0962C30.2069 77.7198 29.8074 78.059 29.6355 78.1758C29.4638 78.2926 29.0016 78.5395 28.4215 78.3107L12.4621 72.0094C11.9601 71.8113 11.6358 71.3346 11.6358 70.7948V63.3771L30.2069 70.2098V77.0962Z" fill="#507CDD"/>
<path d="M11.6358 54.3581V66.6164C11.6358 67.1561 11.9602 67.6328 12.4621 67.8309L28.4216 74.1323C29.0017 74.3612 29.4638 74.1143 29.6356 73.9973C29.8074 73.8805 30.207 73.5414 30.207 72.9177V62.5989H34.5596V72.9177C34.5596 74.7927 33.6341 76.5415 32.0838 77.5962C31.1311 78.2444 30.0209 78.5768 28.9019 78.5768C28.2003 78.5768 27.4953 78.4462 26.8233 78.1807L10.8637 71.8794C8.68879 71.0205 7.28342 68.9548 7.28342 66.6164V54.3581H11.6358Z" fill="white"/>
<path d="M0.870377 43.4896V51.594C0.870377 53.7831 2.23553 55.7399 4.28995 56.4959L54.9563 75.1372V19.9462L4.29013 38.5877C2.23553 39.3437 0.870377 41.3006 0.870377 43.4896Z" fill="white"/>
<path d="M32.2886 55.1938L13.8336 48.4037C12.6971 47.9855 11.4914 48.8266 11.4914 50.0377V53.1436C11.4914 53.8732 11.9465 54.5256 12.6313 54.7775L31.0863 61.5676C32.2228 61.9858 33.4285 61.1447 33.4285 59.9336V56.8276C33.4285 56.0979 32.9734 55.4457 32.2886 55.1938Z" fill="#6583FE"/>
<path d="M18.3389 33.4181V61.6647L4.29045 56.4956C2.23602 55.74 0.871044 53.783 0.871044 51.5946V43.49C0.871044 41.2998 2.23602 39.3429 4.29045 38.5872L8.96514 36.8671L18.3389 33.4181Z" fill="#6583FE"/>
<path d="M0.871166 43.8943H4.49967C4.98037 43.8943 5.37019 44.2841 5.37019 44.7648C5.37019 45.2455 4.98037 45.6353 4.49967 45.6353H0.871166V43.8943Z" fill="#507CDD"/>
<path d="M0.871101 46.6707H4.4996C4.9803 46.6707 5.37012 47.0605 5.37012 47.5412C5.37012 48.0219 4.9803 48.4118 4.4996 48.4118H0.871101V46.6707Z" fill="#507CDD"/>
<path d="M0.871101 49.4476H4.4996C4.9803 49.4476 5.37012 49.8374 5.37012 50.3181C5.37012 50.7988 4.9803 51.1886 4.4996 51.1886H0.871101V49.4476Z" fill="#507CDD"/>
<path d="M54.9563 75.1374C58.7709 75.1374 61.8632 62.7825 61.8632 47.5419C61.8632 32.3014 58.7709 19.9464 54.9563 19.9464C51.1418 19.9464 48.0494 32.3014 48.0494 47.5419C48.0494 62.7825 51.1418 75.1374 54.9563 75.1374Z" fill="white"/>
<path d="M54.8683 47.5419C54.8683 51.2364 51.9311 54.2466 48.2627 54.3581C48.1235 52.1783 48.0503 49.894 48.0503 47.5419C48.0503 45.1897 48.1235 42.9055 48.2627 40.7257C51.9311 40.8371 54.8683 43.8474 54.8683 47.5419Z" fill="#6583FE"/>
<path d="M33.6885 35.0625H13.7053C8.93592 35.0625 5.06959 31.1962 5.06959 26.4268C5.06959 21.6573 8.93592 17.791 13.7053 17.791H25.9233C30.6927 17.791 34.559 21.6573 34.559 26.4268V34.192C34.559 34.6727 34.1693 35.0625 33.6885 35.0625Z" fill="white"/>
<path d="M28.441 27.6453H12.507C12.0261 27.6453 11.6364 27.2555 11.6364 26.7748C11.6364 26.2941 12.0261 25.9043 12.507 25.9043H28.441C28.9218 25.9043 29.3115 26.2941 29.3115 26.7748C29.3115 27.2557 28.9217 27.6453 28.441 27.6453Z" fill="#507CDD"/>
<path d="M28.441 30.8935H12.507C12.0261 30.8935 11.6365 30.5037 11.6365 30.023C11.6365 29.5423 12.0261 29.1525 12.507 29.1525H28.441C28.9219 29.1525 29.3115 29.5423 29.3115 30.023C29.3115 30.5037 28.9217 30.8935 28.441 30.8935Z" fill="#507CDD"/>
<path d="M20.1579 21.5741C23.1038 18.6283 23.1038 13.8521 20.1579 10.9062C17.2121 7.9604 12.4359 7.9604 9.49006 10.9062C6.54422 13.8521 6.54422 18.6283 9.49006 21.5741C12.4359 24.5199 17.2121 24.5199 20.1579 21.5741Z" fill="white"/>
<path d="M17.7204 15.2288C17.7204 13.6339 16.4228 12.3365 14.8281 12.3365C13.2333 12.3365 11.9355 13.6339 11.9355 15.2288C11.9355 16.0154 12.252 16.7288 12.7634 17.2507C12.2522 17.7727 11.9355 18.486 11.9355 19.2726C11.9355 19.7533 12.3253 20.1431 12.806 20.1431C13.2867 20.1431 13.6765 19.7533 13.6765 19.2726C13.6765 18.6378 14.1931 18.1212 14.8279 18.1212C15.4627 18.1212 15.9792 18.6378 15.9792 19.2726C15.9792 19.7533 16.369 20.1431 16.8497 20.1431C17.3305 20.1431 17.7203 19.7533 17.7203 19.2726C17.7203 18.486 17.4037 17.7727 16.8924 17.2507C17.4039 16.7288 17.7204 16.0154 17.7204 15.2288ZM14.8279 14.0775C15.4627 14.0775 15.9792 14.5941 15.9792 15.2288C15.9792 15.8638 15.4627 16.3802 14.8279 16.3802C14.1931 16.3802 13.6765 15.8636 13.6765 15.2288C13.6765 14.5941 14.1931 14.0775 14.8279 14.0775Z" fill="#507CDD"/>
<path d="M18.339 50.0606V56.8768L12.6318 54.7771C11.9459 54.5247 11.4915 53.8735 11.4915 53.144V50.038C11.4915 48.8262 12.698 47.9853 13.8332 48.4032L18.339 50.0606Z" fill="white"/>
<g opacity="0.15">
<g opacity="0.15">
<path opacity="0.15" d="M71.7391 55.8227C71.6742 55.8227 71.6084 55.8154 71.5429 55.8003L66.36 54.6023C65.8917 54.494 65.5995 54.0265 65.7078 53.558C65.8161 53.0897 66.2838 52.7982 66.7521 52.9058L71.241 53.9435L71.6876 52.9603C71.8553 52.5907 72.256 52.3859 72.6539 52.4674L78.7038 53.699C79.1749 53.795 79.4791 54.2546 79.3832 54.7257C79.2872 55.1968 78.8279 55.5012 78.3565 55.4051L72.9861 54.3117L72.5317 55.3121C72.388 55.6283 72.0745 55.8227 71.7391 55.8227Z" fill="#507CDD"/>
</g>
<g opacity="0.15">
<g opacity="0.15">
<path opacity="0.15" d="M66.5568 48.5868C66.2665 48.5868 65.9827 48.4418 65.8175 48.1773C65.5628 47.7696 65.6869 47.2325 66.0947 46.9779L70.0025 44.5375L69.6231 43.5266C69.4805 43.1468 69.6194 42.7186 69.9577 42.4947L75.1067 39.0877C75.5078 38.8227 76.0479 38.9324 76.313 39.3334C76.5784 39.7343 76.4683 40.2744 76.0674 40.5397L71.4968 43.5643L71.8828 44.5929C72.0283 44.9808 71.8803 45.4176 71.5288 45.6371L67.0167 48.4548C66.8736 48.5442 66.7143 48.5868 66.5568 48.5868Z" fill="#507CDD"/>
</g>
<g opacity="0.15">
<path opacity="0.15" d="M75.5865 69.3297C75.4214 69.3297 75.2546 69.2828 75.1068 69.185L69.9579 65.7779C69.6196 65.554 69.4806 65.1259 69.6232 64.746L70.0026 63.7352L66.0948 61.2948C65.6871 61.0402 65.563 60.5031 65.8177 60.0954C66.0724 59.6876 66.6093 59.5633 67.0171 59.8182L71.5291 62.6359C71.8805 62.8552 72.0287 63.2922 71.8831 63.68L71.4971 64.7086L76.0677 67.7329C76.4687 67.9983 76.5787 68.5384 76.3134 68.9393C76.1457 69.1926 75.8687 69.3297 75.5865 69.3297Z" fill="#507CDD"/>
</g>
</g>
</g>
<path d="M3.98959 57.3128L6.41347 58.2045V66.6155C6.41347 69.3141 8.03473 71.698 10.5439 72.6883L26.5047 78.9912C27.2727 79.2936 28.0793 79.447 28.9025 79.447C30.2158 79.447 31.485 79.0559 32.573 78.316C34.3617 77.0994 35.4297 75.0815 35.4297 72.9181V68.8803L45.753 72.6785C45.8522 72.7151 45.9535 72.7323 46.0535 72.7323C46.408 72.7323 46.741 72.5142 46.8706 72.1621C47.0367 71.7108 46.8054 71.2106 46.3542 71.0445L4.59078 55.679C2.8863 55.0519 1.74104 53.4102 1.74104 51.5942V43.4898C1.74104 41.6735 2.8863 40.0321 4.59078 39.405L14.0258 35.9335C14.0262 35.9333 14.0263 35.9332 14.0267 35.9332H24.4957C24.9764 35.9332 25.3663 35.5433 25.3663 35.0626C25.3663 34.5819 24.9764 34.1921 24.4957 34.1921H13.7055C9.42373 34.1921 5.94026 30.7086 5.94026 26.4267C5.94026 24.3954 6.72651 22.5461 8.00826 21.1611C9.53829 23.2756 12.0243 24.655 14.8279 24.655C18.6263 24.655 21.8434 22.1248 22.8862 18.6617H25.9234C30.2051 18.6617 33.6886 22.1452 33.6886 26.4269V34.1923H30.3563C29.8756 34.1923 29.4857 34.5821 29.4857 35.0628C29.4857 35.5435 29.8756 35.9333 30.3563 35.9333H33.6886C34.6486 35.9333 35.4297 35.1523 35.4297 34.1923V28.0588L51.1817 22.2632C50.4578 23.6602 49.8053 25.5123 49.2283 27.818C47.907 33.0972 47.1792 40.1021 47.1792 47.5424C47.1792 54.9827 47.907 61.9875 49.2283 67.2667C50.6801 73.0671 52.6075 76.0082 54.9566 76.0082C57.306 76.0082 59.2332 73.0671 60.685 67.2667C62.0063 61.9875 62.734 54.9826 62.734 47.5424C62.734 40.1022 62.0063 33.0973 60.685 27.818C59.2434 22.0583 57.3328 19.1194 55.0059 19.0783C54.9998 19.078 54.9937 19.0778 54.9876 19.0776C54.9772 19.0774 54.9669 19.0764 54.9566 19.0764C54.3576 19.0764 53.7861 19.2688 53.2429 19.6499L35.4243 26.206C35.3059 21.0664 31.0912 16.921 25.9236 16.921H23.2133C23.2314 16.6962 23.2432 16.4697 23.2432 16.2404C23.2432 11.6004 19.4683 7.82544 14.8281 7.82544C10.188 7.82544 6.41312 11.6004 6.41312 16.2404C6.41312 17.4313 6.66331 18.5645 7.11145 19.5923C5.31853 21.3218 4.19939 23.7452 4.19939 26.4272C4.19939 30.5446 6.83115 34.0577 10.5002 35.376L3.98959 37.7713C1.60332 38.6493 0 40.9475 0 43.4901V51.5945C0 54.1368 1.60332 56.4349 3.98959 57.3128ZM33.6886 72.9183C33.6886 74.5047 32.9055 75.9844 31.5938 76.8767C30.7959 77.4194 29.8653 77.7061 28.9025 77.7061C28.2987 77.7061 27.7066 77.5935 27.1433 77.3718L11.1832 71.0693C9.34329 70.3431 8.15451 68.5951 8.15451 66.6159V58.8454L10.7661 59.8063V66.6159C10.7661 67.5151 11.306 68.3097 12.1422 68.6409L28.1013 74.9412C28.3612 75.0442 28.6339 75.0949 28.9046 75.0949C29.3344 75.0949 29.76 74.9673 30.1231 74.7188C30.7205 74.3147 31.0771 73.6418 31.0771 72.9184V67.2792L33.6886 68.2401V72.9183ZM12.5071 60.4467L29.336 66.6385V72.9183C29.336 73.1092 29.2336 73.2186 29.1441 73.279C29.0583 73.3375 28.9194 73.3925 28.7416 73.322L12.7822 67.0215C12.6124 66.9543 12.5071 66.7988 12.5071 66.6157V60.4467ZM60.993 47.5419C60.993 64.0997 57.4771 74.2667 54.9566 74.2667C52.436 74.2667 48.9203 64.0997 48.9203 47.5419C48.9203 32.8459 51.6898 23.1854 54.075 21.1984L55.0862 20.8263C57.5957 21.1651 60.993 31.2656 60.993 47.5419ZM14.8279 9.56578C18.508 9.56578 21.502 12.5597 21.502 16.2397C21.502 19.9198 18.5081 22.9136 14.8279 22.9136C11.1479 22.9136 8.15399 19.9198 8.15399 16.2397C8.15399 12.5599 11.1479 9.56578 14.8279 9.56578Z" fill="#507CDD"/>
<path d="M66.36 50.424L71.5429 51.622C71.6084 51.6371 71.6742 51.6445 71.7391 51.6445C72.0745 51.6445 72.388 51.4498 72.5315 51.1338L72.9859 50.1334L78.3565 51.2268C78.8278 51.3229 79.2872 51.0184 79.3832 50.5474C79.4791 50.0763 79.1749 49.6167 78.7038 49.5207L72.6537 48.2891C72.2559 48.2078 71.8553 48.4126 71.6874 48.7822L71.2409 49.7652L66.7521 48.7277C66.2839 48.6196 65.8161 48.9115 65.7078 49.3799C65.5995 49.848 65.8915 50.3157 66.36 50.424Z" fill="#507CDD"/>
<path d="M66.557 44.4083C66.7144 44.4083 66.8739 44.3656 67.0172 44.2761L71.5291 41.4584C71.8806 41.2389 72.0286 40.802 71.883 40.4141L71.497 39.3855L76.0676 36.3612C76.4686 36.0958 76.5786 35.5558 76.3133 35.1548C76.0479 34.754 75.5079 34.6442 75.1069 34.9091L69.958 38.3162C69.6197 38.5401 69.4807 38.9682 69.6233 39.3481L70.0027 40.359L66.0949 42.7994C65.6872 43.0539 65.563 43.591 65.8178 43.9988C65.9828 44.2631 66.2666 44.4083 66.557 44.4083Z" fill="#507CDD"/>
<path d="M69.958 61.5997L75.1069 65.0068C75.2547 65.1046 75.4215 65.1514 75.5866 65.1514C75.8688 65.1514 76.1458 65.0142 76.3133 64.7613C76.5786 64.3603 76.4686 63.8202 76.0676 63.5549L71.497 60.5304L71.883 59.5018C72.0286 59.1139 71.8806 58.677 71.5291 58.4575L67.0172 55.6398C66.6092 55.3851 66.0723 55.5092 65.8178 55.917C65.563 56.3247 65.6872 56.8618 66.0949 57.1164L70.0027 59.5568L69.6233 60.5676C69.4807 60.9477 69.6197 61.3756 69.958 61.5997Z" fill="#507CDD"/>
<defs>
<linearGradient id="paint0_linear" x1="3.44742" y1="44.5706" x2="76.8239" y2="44.5706" gradientUnits="userSpaceOnUse">
<stop stop-color="#D2DEFF" stop-opacity="0"/>
<stop offset="1" stop-color="#B7C5FF"/>
</linearGradient>
</defs>
</svg>
