<svg width="80" height="72" viewBox="0 0 80 72" fill="none" xmlns="http://www.w3.org/2000/svg">
<path d="M72.705 21.3817C70.3769 18.674 68.8612 15.3715 68.1425 11.8812C67.5331 8.9074 66.2519 6.34053 64.2362 4.32147C55.0487 -4.88168 34.1892 1.09724 17.6423 17.6723C1.09537 34.263 -4.8734 55.158 4.31414 64.3455C8.67353 68.7123 15.6892 69.667 23.6111 67.6636C28.2205 66.5054 33.0642 66.9906 37.408 68.9157C41.033 70.5278 45.033 71.4513 49.2362 71.5139C65.7519 71.7487 79.5019 58.5857 79.9863 42.0575C80.2206 34.1535 77.4394 26.9068 72.705 21.3817Z" fill="url(#paint0_linear)"/>
<path opacity="0.1" d="M49.9081 7.32657C47.8143 8.14046 45.4706 8.14046 43.3768 7.32657C42.8143 7.10745 42.1581 7.24832 41.7206 7.68656L7.32983 42.1358C6.89233 42.574 6.7517 43.2158 6.97045 43.7949C7.78295 45.8922 7.78295 48.2399 6.97045 50.3372C6.7517 50.9007 6.89233 51.5581 7.32983 51.9963L22.4549 67.1471C22.8924 67.5853 23.533 67.7262 24.1111 67.5071C26.2049 66.6932 28.5487 66.6932 30.6424 67.5071C31.2049 67.7262 31.8612 67.5853 32.2987 67.1471L66.6894 32.6979C67.1269 32.2596 67.2675 31.6179 67.0488 31.0388C66.2363 28.9415 66.2363 26.5937 67.0488 24.4964C67.2675 23.9329 67.1269 23.2756 66.6894 22.8373L51.5644 7.68656C51.1269 7.24832 50.4706 7.10745 49.9081 7.32657Z" fill="#507CDD"/>
<path d="M49.9081 4.03971C47.8143 4.85359 45.4706 4.85359 43.3768 4.03971C42.8143 3.82059 42.1581 3.96145 41.7206 4.3997L7.32983 38.8489C6.89233 39.2872 6.7517 39.9289 6.97045 40.508C7.78295 42.6053 7.78295 44.9531 6.97045 47.0504C6.7517 47.6138 6.89233 48.2712 7.32983 48.7094L22.4549 63.8602C22.8924 64.2985 23.533 64.4393 24.1111 64.2202C26.2049 63.4063 28.5487 63.4063 30.6424 64.2202C31.2049 64.4393 31.8612 64.2985 32.2987 63.8602L66.6894 29.411C67.1269 28.9727 67.2675 28.331 67.0488 27.7519C66.2363 25.6546 66.2363 23.3069 67.0488 21.2095C67.2675 20.6461 67.1269 19.9887 66.6894 19.5505L51.5644 4.3997C51.1269 3.96145 50.4706 3.82059 49.9081 4.03971Z" fill="white"/>
<path d="M29.908 59.1334C28.2361 58.8204 26.5329 58.8204 24.8767 59.1334C24.6267 59.1804 24.3767 59.1021 24.1892 58.9143L12.2673 46.9721C12.0798 46.7843 12.0016 46.5339 12.0485 46.2834C12.361 44.6087 12.361 42.9027 12.0485 41.2436C12.0016 40.9932 12.0798 40.7428 12.2673 40.5549L43.4392 9.32994C43.6267 9.14212 43.8767 9.06386 44.1268 9.11081C45.7986 9.42385 47.5018 9.42385 49.158 9.11081C49.408 9.06386 49.658 9.14212 49.8455 9.32994L61.7674 21.2721C61.9549 21.4599 62.0331 21.7104 61.9862 21.9608C61.6737 23.6355 61.6737 25.3416 61.9862 27.0006C62.0331 27.251 61.9549 27.5015 61.7674 27.6893L30.5955 58.9143C30.408 59.1021 30.158 59.1804 29.908 59.1334Z" fill="white"/>
<path d="M43.4393 9.32994L27.8455 24.9503L46.1737 43.3096L61.7675 27.6893C61.955 27.5015 62.0331 27.2511 61.9862 27.0006C61.6737 25.3259 61.6737 23.6199 61.9862 21.9608C62.0331 21.7104 61.955 21.4599 61.7675 21.2721L49.8456 9.32994C49.6581 9.14212 49.4081 9.06386 49.1581 9.11081C47.4862 9.42385 45.783 9.42385 44.1268 9.11081C43.8768 9.06386 43.6112 9.14212 43.4393 9.32994Z" fill="#6583FE"/>
<path d="M36.0486 60.8707C35.8455 60.8707 35.6424 60.7925 35.5018 60.636C35.1893 60.3229 35.1893 59.8377 35.5018 59.5247L66.1269 28.8475C66.3456 28.6284 66.4238 28.3154 66.3144 28.0336C65.4394 25.7485 65.4394 23.2129 66.3144 20.9278C66.4238 20.6461 66.3456 20.333 66.1269 20.1139L54.7518 8.71951C54.4393 8.40648 54.4393 7.92128 54.7518 7.60825C55.0643 7.29522 55.5487 7.29522 55.8612 7.60825L67.2363 19.0026C67.8925 19.66 68.0956 20.6304 67.7675 21.4912C67.0175 23.4164 67.0175 25.545 67.7675 27.4702C68.0956 28.331 67.8925 29.3014 67.2363 29.9588L36.6112 60.636C36.4549 60.7925 36.2518 60.8707 36.0486 60.8707Z" fill="#507CDD"/>
<path d="M31.1892 65.0967C30.908 65.0967 30.6267 65.0498 30.3611 64.9402C28.4392 64.1889 26.3142 64.1889 24.3923 64.9402C23.533 65.2689 22.5642 65.0654 21.908 64.408L6.78291 49.2573C6.12666 48.5999 5.92353 47.6295 6.25166 46.7687C7.00166 44.8435 7.00166 42.7149 6.25166 40.7897C5.92353 39.9289 6.12666 38.9585 6.78291 38.3011L41.1737 3.83625C41.8299 3.17888 42.7987 2.97541 43.658 3.30409C45.5799 4.05537 47.7049 4.05537 49.6268 3.30409C50.4862 2.97541 51.4549 3.17888 52.1112 3.83625C52.4237 4.14928 52.4237 4.63448 52.1112 4.94751C51.7987 5.26054 51.3143 5.26054 51.0018 4.94751C50.7831 4.72839 50.4706 4.65013 50.1893 4.75969C47.9081 5.63618 45.3768 5.63618 43.0955 4.75969C42.8143 4.65013 42.5018 4.72839 42.283 4.94751L7.89229 39.3967C7.67354 39.6159 7.59541 39.9289 7.70479 40.2106C8.57979 42.4958 8.57979 45.0313 7.70479 47.3165C7.59541 47.5982 7.67354 47.9112 7.89229 48.1303L23.0173 63.2811C23.2361 63.5002 23.5486 63.5785 23.8298 63.4689C26.1111 62.5924 28.6424 62.5924 30.9236 63.4689C31.2049 63.5785 31.5174 63.5002 31.7361 63.2811C32.0486 62.9681 32.533 62.9681 32.8455 63.2811C33.158 63.5942 33.158 64.0794 32.8455 64.3924C32.408 64.8463 31.7986 65.0967 31.1892 65.0967Z" fill="#507CDD"/>
<path d="M19.5642 45.6887H17.1267C16.6892 45.6887 16.3455 45.3444 16.3455 44.9061V42.4645C16.3455 42.0262 16.6892 41.6819 17.1267 41.6819H19.5642C20.0017 41.6819 20.3455 42.0262 20.3455 42.4645V44.9061C20.3455 45.3287 20.0017 45.6887 19.5642 45.6887ZM17.9236 44.1235H18.7986V43.247H17.9236V44.1235Z" fill="#507CDD"/>
<path d="M28.658 45.6886H26.2205C25.783 45.6886 25.4392 45.3443 25.4392 44.9061V42.4644C25.4392 42.0262 25.783 41.6818 26.2205 41.6818H28.658C29.0955 41.6818 29.4392 42.0262 29.4392 42.4644V44.9061C29.4392 45.3287 29.0955 45.6886 28.658 45.6886ZM27.0017 44.1235H27.8767V43.247H27.0017V44.1235Z" fill="#507CDD"/>
<path d="M22.8923 49.7268C22.4548 49.7268 22.1111 49.3825 22.1111 48.9442V38.4107C22.1111 37.9724 22.4548 37.6281 22.8923 37.6281C23.3298 37.6281 23.6736 37.9724 23.6736 38.4107V48.9442C23.6736 49.3825 23.3298 49.7268 22.8923 49.7268Z" fill="#507CDD"/>
<path d="M25.5174 52.9511L30.2205 48.2399C30.533 47.9269 31.0174 47.9269 31.3299 48.2399C31.6424 48.553 31.6424 49.0382 31.3299 49.3512L26.6267 54.0623C26.3142 54.3754 25.8299 54.3754 25.5174 54.0623C25.2049 53.7493 25.2049 53.2641 25.5174 52.9511Z" fill="#507CDD"/>
<path d="M27.658 55.0953L38.9862 43.7479C39.2987 43.4349 39.7831 43.4349 40.0956 43.7479C40.4081 44.0609 40.4081 44.5461 40.0956 44.8592L28.7674 56.2066C28.4549 56.5196 27.9705 56.5196 27.658 56.2066C27.3455 55.8936 27.3455 55.4084 27.658 55.0953Z" fill="#507CDD"/>
<path d="M46.7518 33.3396C51.6965 33.3396 55.705 29.3243 55.705 24.3712C55.705 19.4181 51.6965 15.4028 46.7518 15.4028C41.8071 15.4028 37.7987 19.4181 37.7987 24.3712C37.7987 29.3243 41.8071 33.3396 46.7518 33.3396Z" fill="white"/>
<path d="M40.3135 24.9049C40.6076 23.0877 39.3753 21.3757 37.5611 21.0811C35.7469 20.7865 34.0378 22.0208 33.7437 23.8381C33.4496 25.6554 34.6819 27.3674 36.4961 27.662C38.3103 27.9566 40.0194 26.7222 40.3135 24.9049Z" fill="white"/>
<path d="M37.0331 28.4876C34.7674 28.4876 32.9237 26.6407 32.9237 24.3712C32.9237 22.1017 34.7674 20.2548 37.0331 20.2548C39.2987 20.2548 41.1424 22.1017 41.1424 24.3712C41.1424 26.6407 39.2987 28.4876 37.0331 28.4876ZM37.0331 21.8043C35.6268 21.8043 34.4862 22.9469 34.4862 24.3555C34.4862 25.7642 35.6268 26.9067 37.0331 26.9067C38.4393 26.9067 39.5799 25.7642 39.5799 24.3555C39.5956 22.9625 38.4393 21.8043 37.0331 21.8043Z" fill="#507CDD"/>
<path d="M47.3768 28.9884C47.1737 28.9884 46.9706 28.9102 46.83 28.7537C46.5175 28.4406 46.5175 27.9554 46.83 27.6424L49.1425 25.3259C49.2987 25.1694 49.3769 24.9816 49.3769 24.7625C49.3769 24.5434 49.2987 24.3555 49.1425 24.199C48.83 23.886 48.33 23.886 48.0175 24.199L46.58 25.639C45.6581 26.5624 44.1581 26.5624 43.2518 25.639C42.3456 24.7155 42.33 23.213 43.2518 22.3052L45.5643 19.9887C45.8768 19.6757 46.3612 19.6757 46.6737 19.9887C46.9862 20.3018 46.9862 20.787 46.6737 21.1L44.3612 23.4164C44.0487 23.7295 44.0487 24.2303 44.3612 24.5434C44.6737 24.8564 45.1737 24.8564 45.4862 24.5434L46.9237 23.1034C47.8456 22.18 49.3456 22.18 50.2519 23.1034C50.705 23.5573 50.9394 24.1364 50.9394 24.7781C50.9394 25.4199 50.6894 25.999 50.2519 26.4529L47.9393 28.7693C47.7831 28.9102 47.58 28.9884 47.3768 28.9884Z" fill="#507CDD"/>
<path d="M49.8144 28.2215C49.6113 28.2215 49.4082 28.1432 49.2675 27.9867L43.1269 21.8513C42.8144 21.5383 42.8144 21.0531 43.1269 20.74C43.4394 20.427 43.9238 20.427 44.2363 20.74L50.3613 26.8755C50.6738 27.1885 50.6738 27.6737 50.3613 27.9867C50.205 28.1432 50.0019 28.2215 49.8144 28.2215Z" fill="#507CDD"/>
<path d="M27.8767 30.7258C28.36 30.7258 28.7517 30.3333 28.7517 29.8493C28.7517 29.3652 28.36 28.9728 27.8767 28.9728C27.3935 28.9728 27.0017 29.3652 27.0017 29.8493C27.0017 30.3333 27.3935 30.7258 27.8767 30.7258Z" fill="#507CDD"/>
<path d="M29.7517 32.6039C30.2349 32.6039 30.6267 32.2115 30.6267 31.7274C30.6267 31.2434 30.2349 30.851 29.7517 30.851C29.2684 30.851 28.8767 31.2434 28.8767 31.7274C28.8767 32.2115 29.2684 32.6039 29.7517 32.6039Z" fill="#507CDD"/>
<path d="M31.6267 34.4665C32.11 34.4665 32.5017 34.0741 32.5017 33.59C32.5017 33.106 32.11 32.7135 31.6267 32.7135C31.1435 32.7135 30.7517 33.106 30.7517 33.59C30.7517 34.0741 31.1435 34.4665 31.6267 34.4665Z" fill="#507CDD"/>
<path d="M30.033 59.9317C29.9392 59.9317 29.8455 59.916 29.7517 59.9004C28.1736 59.603 26.5798 59.603 25.0017 59.9004C24.5017 59.9943 23.9861 59.8377 23.6267 59.4621L11.7048 47.5199C11.3454 47.1599 11.1735 46.6434 11.2673 46.1426C11.5642 44.5618 11.5642 42.9653 11.2673 41.3845C11.1735 40.8836 11.3298 40.3671 11.7048 40.0071L42.8768 8.7665C43.2362 8.40652 43.7518 8.23435 44.2518 8.32826C45.8299 8.62564 47.4237 8.62564 49.0018 8.32826C49.5018 8.23435 50.0174 8.39086 50.3768 8.7665L62.2987 20.7087C62.6581 21.0687 62.83 21.5852 62.7362 22.086C62.4393 23.6669 62.4393 25.2633 62.7362 26.8441C62.83 27.345 62.6737 27.8615 62.2987 28.2215L31.1424 59.4621C30.8455 59.7595 30.4549 59.9317 30.033 59.9317ZM43.9862 9.87777L12.8142 41.1028C13.1423 42.8714 13.1423 44.6557 12.8142 46.4243L24.7361 58.3508C26.4861 58.0222 28.283 58.0222 30.0486 58.3508L61.2206 27.1259C60.8925 25.3572 60.8925 23.5729 61.2206 21.8043L49.2987 9.87777C47.533 10.2065 45.7518 10.2065 43.9862 9.87777Z" fill="#507CDD"/>
<defs>
<linearGradient id="paint0_linear" x1="44.6558" y1="89.0875" x2="33.6036" y2="-11.387" gradientUnits="userSpaceOnUse">
<stop stop-color="#D2DEFF" stop-opacity="0"/>
<stop offset="1" stop-color="#B7C5FF"/>
</linearGradient>
</defs>
</svg>
