<svg width="64" height="65" viewBox="0 0 64 65" fill="none" xmlns="http://www.w3.org/2000/svg">
<g clip-path="url(#clip0)">
<path d="M5.27062 53.4512C-2.37963 50.2823 -0.897255 34.0761 4.5975 36.7371C6.63499 37.7237 7.22874 40.805 9.68449 41.4048C11.3736 41.9738 16.9951 40.1852 10.472 29.592C-3.73 6.52834 43.7711 -12.0228 36.5275 20.8835C35.7292 23.9777 38.7672 25.1 41.5137 25.4122C88.0452 30.7018 53.3787 78.0917 18.3594 55.9725C12.5102 52.278 9.02537 55.0065 5.27062 53.4512Z" fill="url(#paint0_linear)"/>
<path opacity="0.1" d="M56.7141 39.5322L61.4054 20.146C61.5641 19.4922 60.9729 18.901 60.3191 19.0597L56.268 20.0401V11.824C56.268 11.1336 55.7084 10.574 55.018 10.574H49.8108C49.1204 10.574 48.5608 11.1336 48.5608 11.824V21.9052L45.3271 22.6877V21.2759C45.3271 20.5855 44.7675 20.0259 44.0771 20.0259H38.8699C38.1795 20.0259 37.6199 20.5855 37.6199 21.2759V36.2467L34.3863 39.4803V30.7275C34.3863 30.0371 33.8266 29.4775 33.1363 29.4775H27.929C27.2386 29.4775 26.679 30.0371 26.679 30.7275V47.1875L23.4454 50.4211V40.1793C23.4454 39.489 22.8858 38.9293 22.1954 38.9293H16.9881C16.2978 38.9293 15.7381 39.489 15.7381 40.1793V56.6981H12.5045V49.6311C12.5045 48.9407 11.9449 48.3811 11.2545 48.3811H6.04714C5.35676 48.3811 4.79714 48.9407 4.79714 49.6311V56.6981H2.56851C2.22339 56.6981 1.94351 56.978 1.94351 57.3231C1.94351 57.6682 2.22339 57.9481 2.56851 57.9481H58.6221C58.9673 57.9481 59.2471 57.6682 59.2471 57.3231C59.2471 56.978 58.9673 56.6981 58.6221 56.6981H56.268V40.1122C56.479 39.9996 56.6489 39.8027 56.7141 39.5322ZM37.6198 49.4445V56.698H34.3863V52.6778L37.6198 49.4445ZM45.3271 56.6981V41.7376L48.5608 38.5042V56.698H45.3271V56.6981Z" fill="#507CDD"/>
<path d="M12.5044 54.3231H4.79712V46.6311C4.79712 45.9407 5.35674 45.3811 6.04712 45.3811H11.2544C11.9447 45.3811 12.5044 45.9407 12.5044 46.6311V54.3231Z" fill="#6583FE"/>
<path d="M23.4453 54.3231H15.7381V37.1794C15.7381 36.489 16.2977 35.9294 16.9881 35.9294H22.1953C22.8857 35.9294 23.4453 36.489 23.4453 37.1794V54.3231Z" fill="#6583FE"/>
<path d="M34.3862 27.7275V54.3225H26.6787V27.7275C26.6787 27.0375 27.2387 26.4775 27.9287 26.4775H33.1362C33.8262 26.4775 34.3862 27.0375 34.3862 27.7275Z" fill="#6583FE"/>
<path d="M45.3275 18.2762V54.3225H37.62V18.2762C37.62 17.585 38.18 17.0262 38.87 17.0262H44.0775C44.7675 17.0262 45.3275 17.585 45.3275 18.2762Z" fill="#6583FE"/>
<path d="M56.2675 8.82373V54.3225H48.5612V8.82373C48.5612 8.13373 49.12 7.57373 49.8112 7.57373H55.0175C55.7087 7.57373 56.2675 8.13373 56.2675 8.82373Z" fill="#6583FE"/>
<path d="M61.4054 17.146L56.7142 36.5322C56.5354 37.2735 55.5742 37.4697 55.1179 36.8585L51.7367 32.3285L29.7404 54.3235H16.5429L45.1379 25.7285L40.6067 22.3472C39.9954 21.891 40.1917 20.9297 40.9329 20.751L60.3192 16.0597C60.9729 15.901 61.5642 16.4922 61.4054 17.146Z" fill="white"/>
<path d="M61.6089 15.8562C61.2296 15.4769 60.6924 15.3259 60.1721 15.4522L56.8925 16.2459V8.82373C56.8925 7.78986 56.0514 6.94873 55.0175 6.94873H49.8113C48.7774 6.94873 47.9363 7.78986 47.9363 8.82373V18.4132L45.9525 18.8932V18.2762C45.9525 17.2424 45.1114 16.4012 44.0775 16.4012H38.87C37.8361 16.4012 36.995 17.2424 36.995 18.2762V32.9875L35.0113 34.9712V27.7275C35.0113 26.6936 34.1701 25.8525 33.1363 25.8525H27.9288C26.8949 25.8525 26.0538 26.6936 26.0538 27.7275V43.9287L16.363 53.6195V37.1792C16.363 36.8346 16.6434 36.5542 16.988 36.5542H22.1953C22.5399 36.5542 22.8203 36.8346 22.8203 37.1792V44.0376C22.8203 44.3827 23.1001 44.6626 23.4453 44.6626C23.7904 44.6626 24.0703 44.3827 24.0703 44.0376V37.1792C24.0703 36.1454 23.2291 35.3042 22.1953 35.3042H16.988C15.9541 35.3042 15.113 36.1454 15.113 37.1792V53.698H13.1294V46.631C13.1294 45.5971 12.2883 44.756 11.2544 44.756H6.04714C5.01326 44.756 4.17214 45.5971 4.17214 46.631V53.698H2.56851C2.22339 53.698 1.94351 53.9779 1.94351 54.323C1.94351 54.6681 2.22339 54.948 2.56851 54.948H58.6221C58.9673 54.948 59.2471 54.6681 59.2471 54.323C59.2471 53.9779 58.9673 53.698 58.6221 53.698H56.8925V37.427C57.0999 37.2296 57.2506 36.9731 57.3216 36.6792L59.9976 25.6207C60.0788 25.2852 59.8726 24.9475 59.5371 24.8662C59.2014 24.785 58.8639 24.9912 58.7826 25.3267L56.1065 36.3856C56.071 36.5331 55.9588 36.577 55.8951 36.5901C55.8311 36.6034 55.7101 36.607 55.6188 36.4846L52.2375 31.9546C52.129 31.8092 51.9626 31.7181 51.7818 31.7051C51.6006 31.6921 51.423 31.7582 51.2948 31.8865L29.4819 53.6981H18.0521L45.5798 26.1705C45.708 26.0422 45.7743 25.8645 45.7611 25.6835C45.7481 25.5025 45.657 25.3361 45.5115 25.2276L40.9804 21.8465C40.8579 21.7551 40.8616 21.634 40.8748 21.57C40.8878 21.5062 40.9318 21.3941 41.0796 21.3585L60.4664 16.6671C60.5963 16.6354 60.684 16.6994 60.7248 16.7401C60.7655 16.781 60.8293 16.8687 60.7976 16.999L59.5685 22.0787C59.4874 22.4142 59.6935 22.752 60.029 22.8332C60.3649 22.9147 60.7024 22.7082 60.7835 22.3727L62.0126 17.2935C62.1391 16.7729 61.9881 16.2355 61.6089 15.8562ZM49.1863 8.82373C49.1863 8.47911 49.4666 8.19873 49.8113 8.19873H55.0175C55.3621 8.19873 55.6425 8.47911 55.6425 8.82373V16.5484L49.1863 18.1107V8.82373ZM27.3038 27.7275C27.3038 27.3829 27.5841 27.1025 27.9288 27.1025H33.1363C33.4809 27.1025 33.7613 27.3829 33.7613 27.7275V36.2212L27.3038 42.6787V27.7275ZM5.42214 53.6981V46.6311C5.42214 46.2865 5.70251 46.0061 6.04714 46.0061H11.2545C11.5991 46.0061 11.8795 46.2865 11.8795 46.6311V53.6981H5.42214ZM44.7025 53.6981H38.245V46.7032L44.7025 40.2461V53.6981ZM45.9525 38.9961L47.9363 37.0125V53.6981H45.9525V38.9961ZM36.995 53.6981H35.0113V49.9369L36.995 47.9532V53.6981ZM51.6678 33.2812L54.617 37.2324C54.871 37.5726 55.2403 37.7829 55.6425 37.8337V53.698H49.1863V35.7625L51.6678 33.2812ZM33.7613 51.1867V53.6981H31.2498L33.7613 51.1867ZM40.7864 20.1434C40.2058 20.2835 39.7705 20.7339 39.6505 21.3187C39.5304 21.9044 39.7535 22.4904 40.2329 22.8481L44.1851 25.7972L38.245 31.7375V18.2762C38.245 17.9316 38.5254 17.6512 38.87 17.6512H44.0775C44.4221 17.6512 44.7025 17.9316 44.7025 18.2762V19.1957L40.7864 20.1434Z" fill="#507CDD"/>
<path d="M43.7405 12.8865C43.5805 12.8865 43.4206 12.8255 43.2985 12.7035L42.6155 12.0205L41.9325 12.7035C41.6884 12.9475 41.2928 12.9475 41.0486 12.7035C40.8045 12.4593 40.8045 12.0636 41.0486 11.8196L42.1736 10.6946C42.4178 10.4506 42.8134 10.4506 43.0575 10.6946L44.1825 11.8196C44.4266 12.0637 44.4266 12.4595 44.1825 12.7035C44.0604 12.8255 43.9005 12.8865 43.7405 12.8865Z" fill="#6583FE"/>
<path d="M17.6679 25.3348C17.5079 25.3348 17.348 25.2738 17.2259 25.1518L16.5429 24.4688L15.8599 25.1518C15.6158 25.3958 15.2201 25.3958 14.976 25.1518C14.7319 24.9077 14.7319 24.512 14.976 24.268L16.101 23.143C16.3451 22.899 16.7408 22.899 16.9849 23.143L18.1099 24.268C18.354 24.5121 18.354 24.9078 18.1099 25.1518C17.9878 25.2738 17.8279 25.3348 17.6679 25.3348Z" fill="#6583FE"/>
<path d="M11.8235 41.4091C11.6635 41.4091 11.5036 41.3481 11.3815 41.2261L10.6985 40.5431L10.0155 41.2261C9.77139 41.4701 9.37577 41.4701 9.13164 41.2261C8.88752 40.982 8.88752 40.5862 9.13164 40.3422L10.2566 39.2172C10.5008 38.9732 10.8964 38.9732 11.1405 39.2172L12.2655 40.3422C12.5096 40.5864 12.5096 40.9821 12.2655 41.2261C12.1434 41.3481 11.9835 41.4091 11.8235 41.4091Z" fill="#6583FE"/>
<path d="M21.7565 26.0223C21.5965 26.0223 21.4366 25.9613 21.3145 25.8393C21.0704 25.5952 21.0704 25.1995 21.3145 24.9555L22.5645 23.7055C22.8086 23.4615 23.2043 23.4615 23.4484 23.7055C23.6925 23.9496 23.6925 24.3453 23.4484 24.5893L22.1984 25.8393C22.0764 25.9613 21.9165 26.0223 21.7565 26.0223Z" fill="#6583FE"/>
<path d="M33.904 60.5735C33.744 60.5735 33.5841 60.5125 33.462 60.3905C33.2179 60.1464 33.2179 59.7506 33.462 59.5066L34.712 58.2566C34.9561 58.0126 35.3517 58.0126 35.5959 58.2566C35.84 58.5007 35.84 58.8965 35.5959 59.1405L34.3459 60.3905C34.224 60.5125 34.064 60.5735 33.904 60.5735Z" fill="#6583FE"/>
</g>
<defs>
<linearGradient id="paint0_linear" x1="9.0775" y1="57.9815" x2="47.7701" y2="19.2888" gradientUnits="userSpaceOnUse">
<stop stop-color="#CEDBFC" stop-opacity="0"/>
<stop offset="1" stop-color="#B4C2FC"/>
</linearGradient>
<clipPath id="clip0">
<rect width="64" height="64" fill="white" transform="translate(0 0.44873)"/>
</clipPath>
</defs>
</svg>
